G04*
G04 #@! TF.GenerationSoftware,Altium Limited,Altium Designer,24.5.2 (23)*
G04*
G04 Layer_Color=8388736*
%FSLAX44Y44*%
%MOMM*%
G71*
G04*
G04 #@! TF.SameCoordinates,D553E347-6E3C-48DD-9562-C4322221CC57*
G04*
G04*
G04 #@! TF.FilePolarity,Negative*
G04*
G01*
G75*
%ADD20R,5.8332X6.6932*%
%ADD21R,1.1632X1.9332*%
%ADD22R,1.0032X1.1032*%
%ADD23R,2.9532X1.2032*%
%ADD24R,6.3532X5.7532*%
%ADD25C,5.2032*%
%ADD26C,2.4524*%
%ADD27R,2.4524X2.4524*%
%ADD28C,1.7032*%
%ADD29R,1.9632X1.9632*%
%ADD30C,4.0132*%
%ADD31R,1.7112X1.7112*%
%ADD32C,1.7112*%
%ADD33R,2.4892X2.4892*%
%ADD34C,2.4892*%
%ADD35R,1.3032X1.3032*%
%ADD36C,1.3032*%
%ADD37C,1.8542*%
%ADD38R,2.1382X2.1382*%
%ADD39C,2.1382*%
%ADD40R,1.7932X1.7932*%
%ADD41C,1.7932*%
%ADD42R,1.7932X1.7932*%
%ADD43O,2.2832X1.2432*%
%ADD44C,0.2032*%
%ADD45R,2.4524X2.4524*%
%ADD46O,1.8796X3.5560*%
%ADD47C,1.4732*%
G36*
X2858301Y2468170D02*
X2858351Y2468168D01*
X2859846Y2468021D01*
X2859896Y2468013D01*
X2859945Y2468006D01*
X2861419Y2467713D01*
X2861468Y2467700D01*
X2861516Y2467689D01*
X2862954Y2467253D01*
X2863000Y2467235D01*
X2863048Y2467219D01*
X2864436Y2466644D01*
X2864481Y2466622D01*
X2864526Y2466601D01*
X2865851Y2465893D01*
X2865894Y2465867D01*
X2865937Y2465842D01*
X2867187Y2465007D01*
X2867226Y2464977D01*
X2867267Y2464947D01*
X2868428Y2463994D01*
X2868465Y2463960D01*
X2868503Y2463927D01*
X2869565Y2462864D01*
X2869598Y2462827D01*
X2869632Y2462790D01*
X2870585Y2461629D01*
X2870614Y2461588D01*
X2870645Y2461549D01*
X2871479Y2460299D01*
X2871505Y2460256D01*
X2871531Y2460213D01*
X2872239Y2458888D01*
X2872260Y2458843D01*
X2872282Y2458798D01*
X2872857Y2457410D01*
X2872873Y2457362D01*
X2872891Y2457316D01*
X2873327Y2455878D01*
X2873338Y2455830D01*
X2873351Y2455781D01*
X2873644Y2454307D01*
X2873651Y2454258D01*
X2873659Y2454209D01*
X2873806Y2452713D01*
X2873808Y2452663D01*
X2873811Y2452613D01*
Y2451862D01*
Y2451111D01*
X2873808Y2451061D01*
X2873806Y2451011D01*
X2873659Y2449516D01*
X2873651Y2449466D01*
X2873644Y2449417D01*
X2873351Y2447943D01*
X2873338Y2447894D01*
X2873327Y2447846D01*
X2872891Y2446408D01*
X2872873Y2446362D01*
X2872857Y2446314D01*
X2872282Y2444926D01*
X2872260Y2444881D01*
X2872239Y2444836D01*
X2871531Y2443510D01*
X2871505Y2443468D01*
X2871479Y2443425D01*
X2870645Y2442175D01*
X2870615Y2442136D01*
X2870585Y2442095D01*
X2869632Y2440934D01*
X2869598Y2440897D01*
X2869565Y2440860D01*
X2868503Y2439797D01*
X2868465Y2439764D01*
X2868428Y2439730D01*
X2867267Y2438777D01*
X2867226Y2438748D01*
X2867187Y2438717D01*
X2865937Y2437883D01*
X2865894Y2437858D01*
X2865851Y2437831D01*
X2864526Y2437123D01*
X2864481Y2437102D01*
X2864436Y2437080D01*
X2863048Y2436505D01*
X2863000Y2436489D01*
X2862954Y2436471D01*
X2861516Y2436035D01*
X2861468Y2436024D01*
X2861419Y2436011D01*
X2859945Y2435718D01*
X2859896Y2435711D01*
X2859846Y2435703D01*
X2858351Y2435556D01*
X2858301Y2435554D01*
X2858251Y2435551D01*
X2857500Y2435551D01*
X2857500D01*
D01*
X2856749D01*
X2856699Y2435554D01*
X2856649Y2435556D01*
X2855154Y2435703D01*
X2855104Y2435711D01*
X2855055Y2435718D01*
X2853581Y2436011D01*
X2853532Y2436024D01*
X2853484Y2436035D01*
X2852046Y2436471D01*
X2852000Y2436489D01*
X2851952Y2436505D01*
X2850564Y2437080D01*
X2850519Y2437102D01*
X2850474Y2437123D01*
X2849149Y2437831D01*
X2849106Y2437858D01*
X2849063Y2437883D01*
X2847813Y2438717D01*
X2847774Y2438748D01*
X2847733Y2438777D01*
X2846572Y2439730D01*
X2846535Y2439764D01*
X2846497Y2439797D01*
X2845435Y2440860D01*
X2845402Y2440897D01*
X2845368Y2440934D01*
X2844415Y2442095D01*
X2844386Y2442136D01*
X2844355Y2442175D01*
X2843521Y2443425D01*
X2843495Y2443468D01*
X2843469Y2443510D01*
X2842761Y2444836D01*
X2842740Y2444881D01*
X2842718Y2444926D01*
X2842143Y2446314D01*
X2842127Y2446362D01*
X2842109Y2446408D01*
X2841673Y2447846D01*
X2841662Y2447894D01*
X2841649Y2447943D01*
X2841356Y2449417D01*
X2841349Y2449466D01*
X2841341Y2449516D01*
X2841194Y2451011D01*
X2841192Y2451061D01*
X2841189Y2451111D01*
Y2451862D01*
Y2452613D01*
X2841192Y2452663D01*
X2841194Y2452713D01*
X2841341Y2454209D01*
X2841349Y2454258D01*
X2841356Y2454307D01*
X2841649Y2455781D01*
X2841662Y2455830D01*
X2841673Y2455878D01*
X2842109Y2457316D01*
X2842127Y2457362D01*
X2842143Y2457410D01*
X2842718Y2458798D01*
X2842740Y2458843D01*
X2842761Y2458888D01*
X2843469Y2460213D01*
X2843495Y2460256D01*
X2843521Y2460299D01*
X2844355Y2461549D01*
X2844385Y2461588D01*
X2844415Y2461629D01*
X2845368Y2462790D01*
X2845402Y2462827D01*
X2845435Y2462864D01*
X2846497Y2463927D01*
X2846535Y2463960D01*
X2846572Y2463994D01*
X2847733Y2464947D01*
X2847774Y2464976D01*
X2847813Y2465007D01*
X2849063Y2465842D01*
X2849106Y2465867D01*
X2849149Y2465893D01*
X2850474Y2466601D01*
X2850519Y2466622D01*
X2850564Y2466644D01*
X2851952Y2467219D01*
X2852000Y2467235D01*
X2852046Y2467253D01*
X2853484Y2467689D01*
X2853532Y2467700D01*
X2853581Y2467713D01*
X2855055Y2468006D01*
X2855104Y2468013D01*
X2855154Y2468021D01*
X2856649Y2468168D01*
X2856699Y2468170D01*
X2856749Y2468173D01*
X2858251D01*
X2858301Y2468170D01*
D02*
G37*
G36*
X2892083Y1956106D02*
X2892133Y1956104D01*
X2893629Y1955957D01*
X2893678Y1955949D01*
X2893727Y1955942D01*
X2895201Y1955649D01*
X2895250Y1955636D01*
X2895298Y1955625D01*
X2896736Y1955189D01*
X2896783Y1955171D01*
X2896830Y1955155D01*
X2898218Y1954580D01*
X2898263Y1954558D01*
X2898308Y1954537D01*
X2899633Y1953829D01*
X2899676Y1953802D01*
X2899719Y1953777D01*
X2900969Y1952943D01*
X2901008Y1952912D01*
X2901049Y1952883D01*
X2902210Y1951930D01*
X2902247Y1951896D01*
X2902285Y1951863D01*
X2903347Y1950800D01*
X2903380Y1950763D01*
X2903414Y1950726D01*
X2904367Y1949565D01*
X2904396Y1949524D01*
X2904427Y1949485D01*
X2905262Y1948235D01*
X2905287Y1948192D01*
X2905313Y1948150D01*
X2906021Y1946824D01*
X2906042Y1946779D01*
X2906064Y1946734D01*
X2906639Y1945346D01*
X2906655Y1945298D01*
X2906673Y1945252D01*
X2907109Y1943814D01*
X2907120Y1943766D01*
X2907133Y1943717D01*
X2907426Y1942243D01*
X2907433Y1942194D01*
X2907441Y1942144D01*
X2907588Y1940649D01*
X2907590Y1940599D01*
X2907593Y1940549D01*
Y1939798D01*
Y1939047D01*
X2907590Y1938997D01*
X2907588Y1938947D01*
X2907441Y1937451D01*
X2907433Y1937402D01*
X2907426Y1937353D01*
X2907133Y1935879D01*
X2907120Y1935830D01*
X2907109Y1935782D01*
X2906673Y1934344D01*
X2906655Y1934298D01*
X2906639Y1934250D01*
X2906064Y1932862D01*
X2906042Y1932817D01*
X2906021Y1932772D01*
X2905313Y1931447D01*
X2905287Y1931404D01*
X2905262Y1931361D01*
X2904427Y1930111D01*
X2904396Y1930072D01*
X2904367Y1930031D01*
X2903414Y1928870D01*
X2903380Y1928833D01*
X2903347Y1928796D01*
X2902285Y1927733D01*
X2902247Y1927700D01*
X2902210Y1927666D01*
X2901049Y1926713D01*
X2901008Y1926684D01*
X2900969Y1926653D01*
X2899719Y1925818D01*
X2899676Y1925793D01*
X2899633Y1925767D01*
X2898308Y1925059D01*
X2898263Y1925038D01*
X2898218Y1925016D01*
X2896830Y1924441D01*
X2896783Y1924425D01*
X2896736Y1924407D01*
X2895298Y1923971D01*
X2895250Y1923960D01*
X2895201Y1923947D01*
X2893727Y1923654D01*
X2893678Y1923647D01*
X2893629Y1923639D01*
X2892133Y1923492D01*
X2892083Y1923490D01*
X2892033Y1923487D01*
X2891282Y1923487D01*
X2891282D01*
D01*
X2890531D01*
X2890481Y1923490D01*
X2890431Y1923492D01*
X2888936Y1923639D01*
X2888886Y1923647D01*
X2888837Y1923654D01*
X2887363Y1923947D01*
X2887314Y1923960D01*
X2887266Y1923971D01*
X2885828Y1924407D01*
X2885782Y1924425D01*
X2885734Y1924441D01*
X2884346Y1925016D01*
X2884301Y1925038D01*
X2884256Y1925059D01*
X2882931Y1925767D01*
X2882888Y1925793D01*
X2882845Y1925818D01*
X2881595Y1926653D01*
X2881556Y1926684D01*
X2881515Y1926713D01*
X2880354Y1927666D01*
X2880317Y1927700D01*
X2880280Y1927733D01*
X2879217Y1928796D01*
X2879184Y1928833D01*
X2879150Y1928870D01*
X2878197Y1930031D01*
X2878168Y1930072D01*
X2878137Y1930111D01*
X2877303Y1931361D01*
X2877278Y1931404D01*
X2877251Y1931447D01*
X2876543Y1932772D01*
X2876522Y1932817D01*
X2876500Y1932862D01*
X2875925Y1934250D01*
X2875909Y1934298D01*
X2875891Y1934344D01*
X2875455Y1935782D01*
X2875444Y1935830D01*
X2875431Y1935879D01*
X2875138Y1937353D01*
X2875131Y1937402D01*
X2875123Y1937451D01*
X2874976Y1938947D01*
X2874974Y1938997D01*
X2874971Y1939047D01*
Y1939798D01*
Y1940549D01*
X2874974Y1940599D01*
X2874976Y1940649D01*
X2875123Y1942144D01*
X2875131Y1942194D01*
X2875138Y1942243D01*
X2875431Y1943717D01*
X2875444Y1943766D01*
X2875455Y1943814D01*
X2875891Y1945252D01*
X2875909Y1945298D01*
X2875925Y1945346D01*
X2876500Y1946734D01*
X2876522Y1946779D01*
X2876543Y1946824D01*
X2877251Y1948150D01*
X2877278Y1948192D01*
X2877303Y1948235D01*
X2878137Y1949485D01*
X2878167Y1949524D01*
X2878197Y1949565D01*
X2879150Y1950726D01*
X2879184Y1950763D01*
X2879217Y1950800D01*
X2880280Y1951863D01*
X2880317Y1951896D01*
X2880354Y1951930D01*
X2881515Y1952883D01*
X2881556Y1952912D01*
X2881595Y1952943D01*
X2882845Y1953777D01*
X2882888Y1953802D01*
X2882931Y1953829D01*
X2884256Y1954537D01*
X2884301Y1954558D01*
X2884346Y1954580D01*
X2885734Y1955155D01*
X2885782Y1955171D01*
X2885828Y1955189D01*
X2887266Y1955625D01*
X2887314Y1955636D01*
X2887363Y1955649D01*
X2888837Y1955942D01*
X2888886Y1955949D01*
X2888936Y1955957D01*
X2890431Y1956104D01*
X2890481Y1956106D01*
X2890531Y1956109D01*
X2892033D01*
X2892083Y1956106D01*
D02*
G37*
G36*
X2083855Y1936548D02*
X2083905Y1936546D01*
X2085401Y1936399D01*
X2085450Y1936391D01*
X2085499Y1936384D01*
X2086973Y1936091D01*
X2087022Y1936078D01*
X2087070Y1936067D01*
X2088508Y1935631D01*
X2088554Y1935613D01*
X2088602Y1935597D01*
X2089990Y1935022D01*
X2090035Y1935000D01*
X2090080Y1934979D01*
X2091405Y1934271D01*
X2091448Y1934245D01*
X2091491Y1934220D01*
X2092741Y1933385D01*
X2092780Y1933354D01*
X2092821Y1933325D01*
X2093982Y1932372D01*
X2094019Y1932338D01*
X2094056Y1932305D01*
X2095119Y1931242D01*
X2095152Y1931205D01*
X2095186Y1931168D01*
X2096139Y1930007D01*
X2096168Y1929966D01*
X2096199Y1929927D01*
X2097034Y1928677D01*
X2097059Y1928634D01*
X2097085Y1928591D01*
X2097793Y1927266D01*
X2097814Y1927221D01*
X2097836Y1927176D01*
X2098411Y1925788D01*
X2098427Y1925740D01*
X2098445Y1925694D01*
X2098881Y1924256D01*
X2098892Y1924208D01*
X2098905Y1924159D01*
X2099198Y1922685D01*
X2099205Y1922636D01*
X2099213Y1922587D01*
X2099360Y1921091D01*
X2099362Y1921041D01*
X2099365Y1920991D01*
Y1920240D01*
Y1919489D01*
X2099362Y1919439D01*
X2099360Y1919389D01*
X2099213Y1917894D01*
X2099205Y1917844D01*
X2099198Y1917795D01*
X2098905Y1916321D01*
X2098892Y1916272D01*
X2098881Y1916224D01*
X2098445Y1914786D01*
X2098427Y1914740D01*
X2098411Y1914692D01*
X2097836Y1913304D01*
X2097814Y1913259D01*
X2097793Y1913214D01*
X2097085Y1911888D01*
X2097059Y1911846D01*
X2097034Y1911803D01*
X2096199Y1910553D01*
X2096169Y1910514D01*
X2096139Y1910473D01*
X2095186Y1909312D01*
X2095152Y1909275D01*
X2095119Y1909238D01*
X2094056Y1908175D01*
X2094019Y1908142D01*
X2093982Y1908108D01*
X2092821Y1907155D01*
X2092780Y1907126D01*
X2092741Y1907095D01*
X2091491Y1906261D01*
X2091448Y1906236D01*
X2091405Y1906209D01*
X2090080Y1905501D01*
X2090035Y1905480D01*
X2089990Y1905458D01*
X2088602Y1904883D01*
X2088554Y1904867D01*
X2088508Y1904849D01*
X2087070Y1904413D01*
X2087022Y1904402D01*
X2086973Y1904389D01*
X2085499Y1904096D01*
X2085450Y1904089D01*
X2085400Y1904081D01*
X2083905Y1903934D01*
X2083855Y1903932D01*
X2083805Y1903929D01*
X2083054Y1903929D01*
X2083054D01*
D01*
X2082303D01*
X2082253Y1903932D01*
X2082203Y1903934D01*
X2080708Y1904081D01*
X2080658Y1904089D01*
X2080609Y1904096D01*
X2079135Y1904389D01*
X2079086Y1904402D01*
X2079038Y1904413D01*
X2077600Y1904849D01*
X2077554Y1904867D01*
X2077506Y1904883D01*
X2076118Y1905458D01*
X2076073Y1905480D01*
X2076028Y1905501D01*
X2074702Y1906209D01*
X2074660Y1906236D01*
X2074617Y1906261D01*
X2073367Y1907095D01*
X2073328Y1907126D01*
X2073287Y1907155D01*
X2072126Y1908108D01*
X2072089Y1908142D01*
X2072052Y1908175D01*
X2070989Y1909238D01*
X2070956Y1909275D01*
X2070922Y1909312D01*
X2069969Y1910473D01*
X2069940Y1910514D01*
X2069909Y1910553D01*
X2069075Y1911803D01*
X2069050Y1911846D01*
X2069023Y1911888D01*
X2068315Y1913214D01*
X2068294Y1913259D01*
X2068272Y1913304D01*
X2067697Y1914692D01*
X2067681Y1914740D01*
X2067663Y1914786D01*
X2067227Y1916224D01*
X2067216Y1916272D01*
X2067203Y1916321D01*
X2066910Y1917795D01*
X2066903Y1917844D01*
X2066895Y1917894D01*
X2066748Y1919389D01*
X2066746Y1919439D01*
X2066743Y1919489D01*
Y1920240D01*
Y1920991D01*
X2066746Y1921041D01*
X2066748Y1921091D01*
X2066895Y1922587D01*
X2066903Y1922636D01*
X2066910Y1922685D01*
X2067203Y1924159D01*
X2067216Y1924208D01*
X2067227Y1924256D01*
X2067663Y1925694D01*
X2067681Y1925740D01*
X2067697Y1925788D01*
X2068272Y1927176D01*
X2068294Y1927221D01*
X2068315Y1927266D01*
X2069023Y1928591D01*
X2069050Y1928634D01*
X2069075Y1928677D01*
X2069909Y1929927D01*
X2069940Y1929966D01*
X2069969Y1930007D01*
X2070922Y1931168D01*
X2070956Y1931205D01*
X2070989Y1931242D01*
X2072052Y1932305D01*
X2072089Y1932338D01*
X2072126Y1932372D01*
X2073287Y1933325D01*
X2073328Y1933354D01*
X2073367Y1933385D01*
X2074617Y1934220D01*
X2074660Y1934245D01*
X2074702Y1934271D01*
X2076028Y1934979D01*
X2076073Y1935000D01*
X2076118Y1935022D01*
X2077506Y1935597D01*
X2077554Y1935613D01*
X2077600Y1935631D01*
X2079038Y1936067D01*
X2079086Y1936078D01*
X2079135Y1936091D01*
X2080609Y1936384D01*
X2080658Y1936391D01*
X2080708Y1936399D01*
X2082203Y1936546D01*
X2082253Y1936548D01*
X2082303Y1936551D01*
X2083805D01*
X2083855Y1936548D01*
D02*
G37*
G36*
X3237954Y1474080D02*
X3238004Y1474078D01*
X3239500Y1473931D01*
X3239549Y1473923D01*
X3239598Y1473916D01*
X3241072Y1473623D01*
X3241121Y1473610D01*
X3241169Y1473599D01*
X3242607Y1473163D01*
X3242654Y1473145D01*
X3242701Y1473129D01*
X3244089Y1472554D01*
X3244134Y1472532D01*
X3244179Y1472511D01*
X3245504Y1471803D01*
X3245547Y1471776D01*
X3245590Y1471752D01*
X3246840Y1470917D01*
X3246879Y1470887D01*
X3246920Y1470857D01*
X3248081Y1469904D01*
X3248118Y1469870D01*
X3248156Y1469837D01*
X3249218Y1468774D01*
X3249251Y1468737D01*
X3249285Y1468700D01*
X3250238Y1467539D01*
X3250267Y1467498D01*
X3250298Y1467459D01*
X3251133Y1466209D01*
X3251158Y1466166D01*
X3251184Y1466124D01*
X3251892Y1464798D01*
X3251913Y1464753D01*
X3251935Y1464708D01*
X3252510Y1463320D01*
X3252526Y1463272D01*
X3252544Y1463226D01*
X3252980Y1461788D01*
X3252991Y1461740D01*
X3253004Y1461691D01*
X3253297Y1460217D01*
X3253304Y1460168D01*
X3253312Y1460118D01*
X3253459Y1458623D01*
X3253461Y1458573D01*
X3253464Y1458523D01*
Y1457772D01*
Y1457021D01*
X3253461Y1456971D01*
X3253459Y1456921D01*
X3253312Y1455426D01*
X3253304Y1455376D01*
X3253297Y1455327D01*
X3253004Y1453853D01*
X3252991Y1453804D01*
X3252980Y1453756D01*
X3252544Y1452318D01*
X3252526Y1452272D01*
X3252510Y1452224D01*
X3251935Y1450836D01*
X3251913Y1450791D01*
X3251892Y1450746D01*
X3251184Y1449420D01*
X3251158Y1449378D01*
X3251133Y1449335D01*
X3250298Y1448085D01*
X3250268Y1448046D01*
X3250238Y1448005D01*
X3249285Y1446844D01*
X3249251Y1446807D01*
X3249218Y1446770D01*
X3248156Y1445707D01*
X3248118Y1445674D01*
X3248081Y1445640D01*
X3246920Y1444687D01*
X3246879Y1444658D01*
X3246840Y1444627D01*
X3245590Y1443793D01*
X3245547Y1443768D01*
X3245504Y1443741D01*
X3244179Y1443033D01*
X3244134Y1443012D01*
X3244089Y1442990D01*
X3242701Y1442415D01*
X3242654Y1442399D01*
X3242607Y1442381D01*
X3241169Y1441945D01*
X3241121Y1441934D01*
X3241072Y1441921D01*
X3239598Y1441628D01*
X3239549Y1441621D01*
X3239500Y1441613D01*
X3238004Y1441466D01*
X3237954Y1441464D01*
X3237904Y1441461D01*
X3237153Y1441461D01*
X3237153D01*
D01*
X3236402D01*
X3236352Y1441464D01*
X3236302Y1441466D01*
X3234807Y1441613D01*
X3234757Y1441621D01*
X3234708Y1441628D01*
X3233234Y1441921D01*
X3233185Y1441934D01*
X3233137Y1441945D01*
X3231699Y1442381D01*
X3231653Y1442399D01*
X3231605Y1442415D01*
X3230217Y1442990D01*
X3230172Y1443012D01*
X3230127Y1443033D01*
X3228802Y1443741D01*
X3228759Y1443768D01*
X3228716Y1443793D01*
X3227466Y1444627D01*
X3227427Y1444657D01*
X3227386Y1444687D01*
X3226225Y1445640D01*
X3226188Y1445674D01*
X3226151Y1445707D01*
X3225088Y1446770D01*
X3225055Y1446807D01*
X3225021Y1446844D01*
X3224068Y1448005D01*
X3224039Y1448046D01*
X3224008Y1448085D01*
X3223174Y1449335D01*
X3223148Y1449378D01*
X3223122Y1449420D01*
X3222414Y1450746D01*
X3222393Y1450791D01*
X3222371Y1450836D01*
X3221796Y1452224D01*
X3221780Y1452272D01*
X3221762Y1452318D01*
X3221326Y1453756D01*
X3221315Y1453804D01*
X3221302Y1453853D01*
X3221009Y1455327D01*
X3221002Y1455376D01*
X3220994Y1455426D01*
X3220847Y1456921D01*
X3220845Y1456971D01*
X3220842Y1457021D01*
Y1457772D01*
Y1458523D01*
X3220845Y1458573D01*
X3220847Y1458623D01*
X3220994Y1460118D01*
X3221002Y1460168D01*
X3221009Y1460217D01*
X3221302Y1461691D01*
X3221315Y1461740D01*
X3221326Y1461788D01*
X3221762Y1463226D01*
X3221780Y1463272D01*
X3221796Y1463320D01*
X3222371Y1464708D01*
X3222393Y1464753D01*
X3222414Y1464798D01*
X3223122Y1466124D01*
X3223148Y1466166D01*
X3223174Y1466209D01*
X3224008Y1467459D01*
X3224038Y1467498D01*
X3224068Y1467539D01*
X3225021Y1468700D01*
X3225055Y1468737D01*
X3225088Y1468774D01*
X3226151Y1469837D01*
X3226188Y1469870D01*
X3226225Y1469904D01*
X3227386Y1470857D01*
X3227427Y1470886D01*
X3227466Y1470917D01*
X3228716Y1471752D01*
X3228759Y1471776D01*
X3228802Y1471803D01*
X3230127Y1472511D01*
X3230172Y1472532D01*
X3230217Y1472554D01*
X3231605Y1473129D01*
X3231653Y1473145D01*
X3231699Y1473163D01*
X3233137Y1473599D01*
X3233185Y1473610D01*
X3233234Y1473623D01*
X3234708Y1473916D01*
X3234757Y1473923D01*
X3234807Y1473931D01*
X3236302Y1474078D01*
X3236352Y1474080D01*
X3236402Y1474083D01*
X3237904D01*
X3237954Y1474080D01*
D02*
G37*
G36*
X1440727Y1473318D02*
X1440777Y1473316D01*
X1442272Y1473169D01*
X1442322Y1473161D01*
X1442371Y1473154D01*
X1443845Y1472861D01*
X1443894Y1472848D01*
X1443942Y1472837D01*
X1445380Y1472401D01*
X1445426Y1472383D01*
X1445474Y1472367D01*
X1446862Y1471792D01*
X1446907Y1471770D01*
X1446952Y1471749D01*
X1448277Y1471041D01*
X1448320Y1471015D01*
X1448363Y1470990D01*
X1449613Y1470155D01*
X1449652Y1470125D01*
X1449693Y1470095D01*
X1450854Y1469142D01*
X1450891Y1469108D01*
X1450928Y1469075D01*
X1451991Y1468012D01*
X1452024Y1467975D01*
X1452058Y1467938D01*
X1453011Y1466777D01*
X1453040Y1466736D01*
X1453071Y1466697D01*
X1453905Y1465447D01*
X1453931Y1465404D01*
X1453957Y1465361D01*
X1454665Y1464036D01*
X1454686Y1463991D01*
X1454708Y1463946D01*
X1455283Y1462558D01*
X1455299Y1462510D01*
X1455317Y1462464D01*
X1455753Y1461026D01*
X1455764Y1460978D01*
X1455777Y1460929D01*
X1456070Y1459455D01*
X1456077Y1459406D01*
X1456085Y1459356D01*
X1456232Y1457861D01*
X1456234Y1457811D01*
X1456237Y1457761D01*
Y1457010D01*
Y1456259D01*
X1456234Y1456209D01*
X1456232Y1456159D01*
X1456085Y1454664D01*
X1456077Y1454614D01*
X1456070Y1454565D01*
X1455777Y1453091D01*
X1455764Y1453042D01*
X1455753Y1452994D01*
X1455317Y1451556D01*
X1455299Y1451510D01*
X1455283Y1451462D01*
X1454708Y1450074D01*
X1454686Y1450029D01*
X1454665Y1449984D01*
X1453957Y1448658D01*
X1453931Y1448616D01*
X1453905Y1448573D01*
X1453071Y1447323D01*
X1453040Y1447284D01*
X1453011Y1447243D01*
X1452058Y1446082D01*
X1452024Y1446045D01*
X1451991Y1446008D01*
X1450928Y1444945D01*
X1450891Y1444912D01*
X1450854Y1444878D01*
X1449693Y1443925D01*
X1449652Y1443896D01*
X1449613Y1443865D01*
X1448363Y1443031D01*
X1448320Y1443006D01*
X1448277Y1442979D01*
X1446952Y1442271D01*
X1446907Y1442250D01*
X1446862Y1442228D01*
X1445474Y1441653D01*
X1445426Y1441637D01*
X1445380Y1441619D01*
X1443942Y1441183D01*
X1443894Y1441172D01*
X1443845Y1441159D01*
X1442371Y1440866D01*
X1442322Y1440859D01*
X1442272Y1440851D01*
X1440777Y1440704D01*
X1440727Y1440702D01*
X1440677Y1440699D01*
X1439926Y1440699D01*
D01*
X1439926D01*
X1439175D01*
X1439125Y1440702D01*
X1439075Y1440704D01*
X1437579Y1440851D01*
X1437530Y1440859D01*
X1437481Y1440866D01*
X1436007Y1441159D01*
X1435958Y1441172D01*
X1435910Y1441183D01*
X1434472Y1441619D01*
X1434426Y1441637D01*
X1434378Y1441653D01*
X1432990Y1442228D01*
X1432945Y1442250D01*
X1432900Y1442271D01*
X1431575Y1442979D01*
X1431532Y1443006D01*
X1431489Y1443031D01*
X1430239Y1443865D01*
X1430200Y1443896D01*
X1430159Y1443925D01*
X1428998Y1444878D01*
X1428961Y1444912D01*
X1428924Y1444945D01*
X1427861Y1446008D01*
X1427828Y1446045D01*
X1427794Y1446082D01*
X1426841Y1447243D01*
X1426812Y1447284D01*
X1426781Y1447323D01*
X1425947Y1448573D01*
X1425921Y1448616D01*
X1425895Y1448658D01*
X1425187Y1449984D01*
X1425166Y1450029D01*
X1425144Y1450074D01*
X1424569Y1451462D01*
X1424553Y1451510D01*
X1424535Y1451556D01*
X1424099Y1452994D01*
X1424088Y1453042D01*
X1424075Y1453091D01*
X1423782Y1454565D01*
X1423775Y1454614D01*
X1423767Y1454664D01*
X1423620Y1456159D01*
X1423618Y1456209D01*
X1423615Y1456259D01*
Y1457010D01*
Y1457761D01*
X1423618Y1457811D01*
X1423620Y1457861D01*
X1423767Y1459356D01*
X1423775Y1459406D01*
X1423782Y1459455D01*
X1424075Y1460929D01*
X1424088Y1460978D01*
X1424099Y1461026D01*
X1424535Y1462464D01*
X1424553Y1462510D01*
X1424569Y1462558D01*
X1425144Y1463946D01*
X1425166Y1463991D01*
X1425187Y1464036D01*
X1425895Y1465361D01*
X1425921Y1465404D01*
X1425947Y1465447D01*
X1426781Y1466697D01*
X1426812Y1466736D01*
X1426841Y1466777D01*
X1427794Y1467938D01*
X1427828Y1467975D01*
X1427861Y1468012D01*
X1428924Y1469075D01*
X1428961Y1469108D01*
X1428998Y1469142D01*
X1430159Y1470095D01*
X1430200Y1470124D01*
X1430239Y1470155D01*
X1431489Y1470990D01*
X1431532Y1471015D01*
X1431575Y1471041D01*
X1432900Y1471749D01*
X1432945Y1471770D01*
X1432990Y1471792D01*
X1434378Y1472367D01*
X1434426Y1472383D01*
X1434472Y1472401D01*
X1435910Y1472837D01*
X1435958Y1472848D01*
X1436007Y1472861D01*
X1437481Y1473154D01*
X1437530Y1473161D01*
X1437579Y1473169D01*
X1439075Y1473316D01*
X1439125Y1473318D01*
X1439175Y1473321D01*
X1440677D01*
X1440727Y1473318D01*
D02*
G37*
G36*
X3048978Y1472302D02*
X3049028Y1472300D01*
X3050523Y1472153D01*
X3050573Y1472145D01*
X3050622Y1472138D01*
X3052096Y1471845D01*
X3052144Y1471832D01*
X3052193Y1471821D01*
X3053631Y1471385D01*
X3053677Y1471367D01*
X3053725Y1471351D01*
X3055113Y1470776D01*
X3055158Y1470754D01*
X3055203Y1470733D01*
X3056529Y1470025D01*
X3056571Y1469998D01*
X3056614Y1469973D01*
X3057863Y1469139D01*
X3057903Y1469108D01*
X3057944Y1469079D01*
X3059105Y1468126D01*
X3059142Y1468092D01*
X3059179Y1468059D01*
X3060242Y1466996D01*
X3060275Y1466959D01*
X3060309Y1466922D01*
X3061262Y1465761D01*
X3061291Y1465720D01*
X3061322Y1465681D01*
X3062156Y1464431D01*
X3062181Y1464388D01*
X3062208Y1464346D01*
X3062916Y1463020D01*
X3062937Y1462975D01*
X3062959Y1462930D01*
X3063534Y1461542D01*
X3063550Y1461494D01*
X3063568Y1461448D01*
X3064004Y1460010D01*
X3064015Y1459962D01*
X3064028Y1459913D01*
X3064321Y1458439D01*
X3064328Y1458390D01*
X3064336Y1458340D01*
X3064483Y1456845D01*
X3064485Y1456795D01*
X3064488Y1456745D01*
Y1455994D01*
Y1455243D01*
X3064485Y1455193D01*
X3064483Y1455143D01*
X3064336Y1453647D01*
X3064328Y1453598D01*
X3064321Y1453549D01*
X3064028Y1452075D01*
X3064015Y1452026D01*
X3064004Y1451978D01*
X3063568Y1450540D01*
X3063550Y1450494D01*
X3063534Y1450446D01*
X3062959Y1449058D01*
X3062937Y1449013D01*
X3062916Y1448968D01*
X3062208Y1447643D01*
X3062181Y1447600D01*
X3062156Y1447557D01*
X3061322Y1446307D01*
X3061292Y1446268D01*
X3061262Y1446227D01*
X3060309Y1445066D01*
X3060275Y1445029D01*
X3060242Y1444992D01*
X3059179Y1443929D01*
X3059142Y1443896D01*
X3059105Y1443862D01*
X3057944Y1442909D01*
X3057903Y1442880D01*
X3057863Y1442849D01*
X3056614Y1442014D01*
X3056571Y1441989D01*
X3056529Y1441963D01*
X3055203Y1441255D01*
X3055158Y1441234D01*
X3055113Y1441212D01*
X3053725Y1440637D01*
X3053677Y1440621D01*
X3053631Y1440603D01*
X3052193Y1440167D01*
X3052144Y1440156D01*
X3052096Y1440143D01*
X3050622Y1439850D01*
X3050573Y1439843D01*
X3050523Y1439835D01*
X3049028Y1439688D01*
X3048978Y1439686D01*
X3048928Y1439683D01*
X3048177Y1439683D01*
X3048177D01*
D01*
X3047426D01*
X3047376Y1439686D01*
X3047326Y1439688D01*
X3045830Y1439835D01*
X3045781Y1439843D01*
X3045732Y1439850D01*
X3044258Y1440143D01*
X3044209Y1440156D01*
X3044161Y1440167D01*
X3042723Y1440603D01*
X3042677Y1440621D01*
X3042629Y1440637D01*
X3041241Y1441212D01*
X3041196Y1441234D01*
X3041151Y1441255D01*
X3039825Y1441963D01*
X3039783Y1441989D01*
X3039740Y1442014D01*
X3038490Y1442849D01*
X3038451Y1442879D01*
X3038410Y1442909D01*
X3037249Y1443862D01*
X3037212Y1443896D01*
X3037175Y1443929D01*
X3036112Y1444992D01*
X3036079Y1445029D01*
X3036045Y1445066D01*
X3035092Y1446227D01*
X3035063Y1446268D01*
X3035032Y1446307D01*
X3034197Y1447557D01*
X3034172Y1447600D01*
X3034146Y1447643D01*
X3033438Y1448968D01*
X3033417Y1449013D01*
X3033395Y1449058D01*
X3032820Y1450446D01*
X3032804Y1450494D01*
X3032786Y1450540D01*
X3032350Y1451978D01*
X3032339Y1452026D01*
X3032326Y1452075D01*
X3032033Y1453549D01*
X3032026Y1453598D01*
X3032018Y1453647D01*
X3031871Y1455143D01*
X3031869Y1455193D01*
X3031866Y1455243D01*
Y1455994D01*
Y1456745D01*
X3031869Y1456795D01*
X3031871Y1456845D01*
X3032018Y1458340D01*
X3032026Y1458390D01*
X3032033Y1458439D01*
X3032326Y1459913D01*
X3032339Y1459962D01*
X3032350Y1460010D01*
X3032786Y1461448D01*
X3032804Y1461494D01*
X3032820Y1461542D01*
X3033395Y1462930D01*
X3033417Y1462975D01*
X3033438Y1463020D01*
X3034146Y1464346D01*
X3034172Y1464388D01*
X3034197Y1464431D01*
X3035032Y1465681D01*
X3035063Y1465720D01*
X3035092Y1465761D01*
X3036045Y1466922D01*
X3036079Y1466959D01*
X3036112Y1466996D01*
X3037175Y1468059D01*
X3037212Y1468092D01*
X3037249Y1468126D01*
X3038410Y1469079D01*
X3038451Y1469108D01*
X3038490Y1469139D01*
X3039740Y1469973D01*
X3039783Y1469998D01*
X3039825Y1470025D01*
X3041151Y1470733D01*
X3041196Y1470754D01*
X3041241Y1470776D01*
X3042629Y1471351D01*
X3042677Y1471367D01*
X3042723Y1471385D01*
X3044161Y1471821D01*
X3044209Y1471832D01*
X3044258Y1471845D01*
X3045732Y1472138D01*
X3045781Y1472145D01*
X3045830Y1472153D01*
X3047326Y1472300D01*
X3047376Y1472302D01*
X3047426Y1472305D01*
X3048928D01*
X3048978Y1472302D01*
D02*
G37*
G36*
X1632751Y1472048D02*
X1632801Y1472046D01*
X1634297Y1471899D01*
X1634346Y1471891D01*
X1634395Y1471884D01*
X1635869Y1471591D01*
X1635918Y1471578D01*
X1635966Y1471567D01*
X1637404Y1471131D01*
X1637450Y1471113D01*
X1637498Y1471097D01*
X1638886Y1470522D01*
X1638931Y1470500D01*
X1638976Y1470479D01*
X1640302Y1469771D01*
X1640344Y1469745D01*
X1640387Y1469720D01*
X1641637Y1468885D01*
X1641676Y1468855D01*
X1641717Y1468825D01*
X1642878Y1467872D01*
X1642915Y1467838D01*
X1642952Y1467805D01*
X1644015Y1466742D01*
X1644048Y1466705D01*
X1644082Y1466668D01*
X1645035Y1465507D01*
X1645064Y1465466D01*
X1645095Y1465427D01*
X1645930Y1464177D01*
X1645954Y1464134D01*
X1645981Y1464091D01*
X1646689Y1462766D01*
X1646710Y1462721D01*
X1646732Y1462676D01*
X1647307Y1461288D01*
X1647323Y1461240D01*
X1647341Y1461194D01*
X1647777Y1459756D01*
X1647788Y1459708D01*
X1647801Y1459659D01*
X1648094Y1458185D01*
X1648101Y1458136D01*
X1648109Y1458086D01*
X1648256Y1456591D01*
X1648258Y1456541D01*
X1648261Y1456491D01*
Y1455740D01*
Y1454989D01*
X1648258Y1454939D01*
X1648256Y1454889D01*
X1648109Y1453394D01*
X1648101Y1453344D01*
X1648094Y1453295D01*
X1647801Y1451821D01*
X1647788Y1451772D01*
X1647777Y1451724D01*
X1647341Y1450286D01*
X1647323Y1450240D01*
X1647307Y1450192D01*
X1646732Y1448804D01*
X1646710Y1448759D01*
X1646689Y1448714D01*
X1645981Y1447388D01*
X1645954Y1447346D01*
X1645930Y1447303D01*
X1645095Y1446053D01*
X1645065Y1446014D01*
X1645035Y1445973D01*
X1644082Y1444812D01*
X1644048Y1444775D01*
X1644015Y1444738D01*
X1642952Y1443675D01*
X1642915Y1443642D01*
X1642878Y1443608D01*
X1641717Y1442655D01*
X1641676Y1442626D01*
X1641637Y1442595D01*
X1640387Y1441761D01*
X1640344Y1441736D01*
X1640302Y1441709D01*
X1638976Y1441001D01*
X1638931Y1440980D01*
X1638886Y1440958D01*
X1637498Y1440383D01*
X1637450Y1440367D01*
X1637404Y1440349D01*
X1635966Y1439913D01*
X1635918Y1439902D01*
X1635869Y1439889D01*
X1634395Y1439596D01*
X1634346Y1439589D01*
X1634296Y1439581D01*
X1632801Y1439434D01*
X1632751Y1439432D01*
X1632701Y1439429D01*
X1631950Y1439429D01*
X1631950D01*
D01*
X1631199D01*
X1631149Y1439432D01*
X1631099Y1439434D01*
X1629603Y1439581D01*
X1629554Y1439589D01*
X1629505Y1439596D01*
X1628031Y1439889D01*
X1627982Y1439902D01*
X1627934Y1439913D01*
X1626496Y1440349D01*
X1626450Y1440367D01*
X1626402Y1440383D01*
X1625014Y1440958D01*
X1624969Y1440980D01*
X1624924Y1441001D01*
X1623598Y1441709D01*
X1623556Y1441736D01*
X1623513Y1441761D01*
X1622263Y1442595D01*
X1622224Y1442625D01*
X1622183Y1442655D01*
X1621022Y1443608D01*
X1620985Y1443642D01*
X1620948Y1443675D01*
X1619885Y1444738D01*
X1619852Y1444775D01*
X1619818Y1444812D01*
X1618865Y1445973D01*
X1618836Y1446014D01*
X1618805Y1446053D01*
X1617970Y1447303D01*
X1617946Y1447346D01*
X1617919Y1447388D01*
X1617211Y1448714D01*
X1617190Y1448759D01*
X1617168Y1448804D01*
X1616593Y1450192D01*
X1616577Y1450240D01*
X1616559Y1450286D01*
X1616123Y1451724D01*
X1616112Y1451772D01*
X1616099Y1451821D01*
X1615806Y1453295D01*
X1615799Y1453344D01*
X1615791Y1453394D01*
X1615644Y1454889D01*
X1615642Y1454939D01*
X1615639Y1454989D01*
Y1455740D01*
Y1456491D01*
X1615642Y1456541D01*
X1615644Y1456591D01*
X1615791Y1458086D01*
X1615799Y1458136D01*
X1615806Y1458185D01*
X1616099Y1459659D01*
X1616112Y1459708D01*
X1616123Y1459756D01*
X1616559Y1461194D01*
X1616577Y1461240D01*
X1616593Y1461288D01*
X1617168Y1462676D01*
X1617190Y1462721D01*
X1617211Y1462766D01*
X1617919Y1464091D01*
X1617946Y1464134D01*
X1617970Y1464177D01*
X1618805Y1465427D01*
X1618835Y1465466D01*
X1618865Y1465507D01*
X1619818Y1466668D01*
X1619852Y1466705D01*
X1619885Y1466742D01*
X1620948Y1467805D01*
X1620985Y1467838D01*
X1621022Y1467872D01*
X1622183Y1468825D01*
X1622224Y1468854D01*
X1622263Y1468885D01*
X1623513Y1469720D01*
X1623556Y1469745D01*
X1623598Y1469771D01*
X1624924Y1470479D01*
X1624969Y1470500D01*
X1625014Y1470522D01*
X1626402Y1471097D01*
X1626450Y1471113D01*
X1626496Y1471131D01*
X1627934Y1471567D01*
X1627982Y1471578D01*
X1628031Y1471591D01*
X1629505Y1471884D01*
X1629554Y1471891D01*
X1629603Y1471899D01*
X1631099Y1472046D01*
X1631149Y1472048D01*
X1631199Y1472051D01*
X1632701D01*
X1632751Y1472048D01*
D02*
G37*
G36*
X2072171Y1433882D02*
X2072221Y1433880D01*
X2073716Y1433733D01*
X2073766Y1433725D01*
X2073815Y1433718D01*
X2075289Y1433425D01*
X2075338Y1433412D01*
X2075386Y1433401D01*
X2076824Y1432965D01*
X2076870Y1432947D01*
X2076918Y1432931D01*
X2078306Y1432356D01*
X2078351Y1432334D01*
X2078396Y1432313D01*
X2079722Y1431605D01*
X2079764Y1431579D01*
X2079807Y1431553D01*
X2081057Y1430719D01*
X2081096Y1430688D01*
X2081137Y1430659D01*
X2082298Y1429706D01*
X2082335Y1429672D01*
X2082372Y1429639D01*
X2083435Y1428576D01*
X2083468Y1428539D01*
X2083502Y1428502D01*
X2084455Y1427341D01*
X2084484Y1427300D01*
X2084515Y1427261D01*
X2085349Y1426011D01*
X2085374Y1425968D01*
X2085401Y1425925D01*
X2086109Y1424600D01*
X2086130Y1424555D01*
X2086152Y1424510D01*
X2086727Y1423122D01*
X2086743Y1423074D01*
X2086761Y1423028D01*
X2087197Y1421590D01*
X2087208Y1421542D01*
X2087221Y1421493D01*
X2087514Y1420019D01*
X2087521Y1419970D01*
X2087529Y1419921D01*
X2087676Y1418425D01*
X2087678Y1418375D01*
X2087681Y1418325D01*
Y1417574D01*
Y1416823D01*
X2087678Y1416773D01*
X2087676Y1416723D01*
X2087529Y1415228D01*
X2087521Y1415178D01*
X2087514Y1415129D01*
X2087221Y1413655D01*
X2087208Y1413606D01*
X2087197Y1413558D01*
X2086761Y1412120D01*
X2086743Y1412074D01*
X2086727Y1412026D01*
X2086152Y1410638D01*
X2086130Y1410593D01*
X2086109Y1410548D01*
X2085401Y1409223D01*
X2085374Y1409180D01*
X2085349Y1409137D01*
X2084515Y1407887D01*
X2084485Y1407848D01*
X2084455Y1407807D01*
X2083502Y1406646D01*
X2083468Y1406609D01*
X2083435Y1406572D01*
X2082372Y1405509D01*
X2082335Y1405476D01*
X2082298Y1405442D01*
X2081137Y1404489D01*
X2081096Y1404460D01*
X2081057Y1404429D01*
X2079807Y1403595D01*
X2079764Y1403569D01*
X2079722Y1403543D01*
X2078396Y1402835D01*
X2078351Y1402814D01*
X2078306Y1402792D01*
X2076918Y1402217D01*
X2076870Y1402201D01*
X2076824Y1402183D01*
X2075386Y1401747D01*
X2075338Y1401736D01*
X2075289Y1401723D01*
X2073815Y1401430D01*
X2073766Y1401423D01*
X2073716Y1401415D01*
X2072221Y1401268D01*
X2072171Y1401266D01*
X2072121Y1401263D01*
X2071370Y1401263D01*
X2071370D01*
D01*
X2070619D01*
X2070569Y1401266D01*
X2070519Y1401268D01*
X2069023Y1401415D01*
X2068974Y1401423D01*
X2068925Y1401430D01*
X2067451Y1401723D01*
X2067402Y1401736D01*
X2067354Y1401747D01*
X2065916Y1402183D01*
X2065870Y1402201D01*
X2065822Y1402217D01*
X2064434Y1402792D01*
X2064389Y1402814D01*
X2064344Y1402835D01*
X2063018Y1403543D01*
X2062976Y1403569D01*
X2062933Y1403595D01*
X2061683Y1404429D01*
X2061644Y1404460D01*
X2061603Y1404489D01*
X2060442Y1405442D01*
X2060405Y1405476D01*
X2060368Y1405509D01*
X2059305Y1406572D01*
X2059272Y1406609D01*
X2059238Y1406646D01*
X2058285Y1407807D01*
X2058256Y1407848D01*
X2058225Y1407887D01*
X2057390Y1409137D01*
X2057366Y1409180D01*
X2057339Y1409223D01*
X2056631Y1410548D01*
X2056610Y1410593D01*
X2056588Y1410638D01*
X2056013Y1412026D01*
X2055997Y1412074D01*
X2055979Y1412120D01*
X2055543Y1413558D01*
X2055532Y1413606D01*
X2055519Y1413655D01*
X2055226Y1415129D01*
X2055219Y1415178D01*
X2055211Y1415228D01*
X2055064Y1416723D01*
X2055062Y1416773D01*
X2055059Y1416823D01*
Y1417574D01*
Y1418325D01*
X2055062Y1418375D01*
X2055064Y1418425D01*
X2055211Y1419921D01*
X2055219Y1419970D01*
X2055226Y1420019D01*
X2055519Y1421493D01*
X2055532Y1421542D01*
X2055543Y1421590D01*
X2055979Y1423028D01*
X2055997Y1423074D01*
X2056013Y1423122D01*
X2056588Y1424510D01*
X2056610Y1424555D01*
X2056631Y1424600D01*
X2057339Y1425925D01*
X2057366Y1425968D01*
X2057390Y1426011D01*
X2058225Y1427261D01*
X2058255Y1427300D01*
X2058285Y1427341D01*
X2059238Y1428502D01*
X2059272Y1428539D01*
X2059305Y1428576D01*
X2060368Y1429639D01*
X2060405Y1429672D01*
X2060442Y1429706D01*
X2061603Y1430659D01*
X2061644Y1430688D01*
X2061683Y1430719D01*
X2062933Y1431553D01*
X2062976Y1431579D01*
X2063018Y1431605D01*
X2064344Y1432313D01*
X2064389Y1432334D01*
X2064434Y1432356D01*
X2065822Y1432931D01*
X2065870Y1432947D01*
X2065916Y1432965D01*
X2067354Y1433401D01*
X2067402Y1433412D01*
X2067451Y1433425D01*
X2068925Y1433718D01*
X2068974Y1433725D01*
X2069023Y1433733D01*
X2070519Y1433880D01*
X2070569Y1433882D01*
X2070619Y1433885D01*
X2072121D01*
X2072171Y1433882D01*
D02*
G37*
G36*
X2520227Y1428040D02*
X2520277Y1428038D01*
X2521772Y1427891D01*
X2521822Y1427883D01*
X2521871Y1427876D01*
X2523345Y1427583D01*
X2523394Y1427570D01*
X2523442Y1427559D01*
X2524880Y1427123D01*
X2524926Y1427105D01*
X2524974Y1427089D01*
X2526362Y1426514D01*
X2526407Y1426492D01*
X2526452Y1426471D01*
X2527778Y1425763D01*
X2527820Y1425737D01*
X2527863Y1425712D01*
X2529113Y1424877D01*
X2529152Y1424846D01*
X2529193Y1424817D01*
X2530354Y1423864D01*
X2530391Y1423830D01*
X2530428Y1423797D01*
X2531491Y1422734D01*
X2531524Y1422697D01*
X2531558Y1422660D01*
X2532511Y1421499D01*
X2532540Y1421458D01*
X2532571Y1421419D01*
X2533405Y1420169D01*
X2533430Y1420126D01*
X2533457Y1420083D01*
X2534165Y1418758D01*
X2534186Y1418713D01*
X2534208Y1418668D01*
X2534783Y1417280D01*
X2534799Y1417232D01*
X2534817Y1417186D01*
X2535253Y1415748D01*
X2535264Y1415700D01*
X2535277Y1415651D01*
X2535570Y1414177D01*
X2535577Y1414128D01*
X2535585Y1414079D01*
X2535732Y1412583D01*
X2535734Y1412533D01*
X2535737Y1412483D01*
Y1411732D01*
Y1410981D01*
X2535734Y1410931D01*
X2535732Y1410881D01*
X2535585Y1409386D01*
X2535577Y1409336D01*
X2535570Y1409287D01*
X2535277Y1407813D01*
X2535264Y1407764D01*
X2535253Y1407716D01*
X2534817Y1406278D01*
X2534799Y1406232D01*
X2534783Y1406184D01*
X2534208Y1404796D01*
X2534186Y1404751D01*
X2534165Y1404706D01*
X2533457Y1403380D01*
X2533430Y1403338D01*
X2533405Y1403295D01*
X2532571Y1402045D01*
X2532540Y1402006D01*
X2532511Y1401965D01*
X2531558Y1400804D01*
X2531524Y1400767D01*
X2531491Y1400730D01*
X2530428Y1399667D01*
X2530391Y1399634D01*
X2530354Y1399600D01*
X2529193Y1398647D01*
X2529152Y1398618D01*
X2529113Y1398587D01*
X2527863Y1397753D01*
X2527820Y1397728D01*
X2527778Y1397701D01*
X2526452Y1396993D01*
X2526407Y1396972D01*
X2526362Y1396950D01*
X2524974Y1396375D01*
X2524926Y1396359D01*
X2524880Y1396341D01*
X2523442Y1395905D01*
X2523394Y1395894D01*
X2523345Y1395881D01*
X2521871Y1395588D01*
X2521822Y1395581D01*
X2521772Y1395573D01*
X2520277Y1395426D01*
X2520227Y1395424D01*
X2520177Y1395421D01*
X2519426Y1395421D01*
X2519426D01*
D01*
X2518675D01*
X2518625Y1395424D01*
X2518575Y1395426D01*
X2517079Y1395573D01*
X2517030Y1395581D01*
X2516981Y1395588D01*
X2515507Y1395881D01*
X2515458Y1395894D01*
X2515410Y1395905D01*
X2513972Y1396341D01*
X2513926Y1396359D01*
X2513878Y1396375D01*
X2512490Y1396950D01*
X2512445Y1396972D01*
X2512400Y1396993D01*
X2511075Y1397701D01*
X2511032Y1397728D01*
X2510989Y1397753D01*
X2509739Y1398587D01*
X2509700Y1398618D01*
X2509659Y1398647D01*
X2508498Y1399600D01*
X2508461Y1399634D01*
X2508424Y1399667D01*
X2507361Y1400730D01*
X2507328Y1400767D01*
X2507294Y1400804D01*
X2506341Y1401965D01*
X2506312Y1402006D01*
X2506281Y1402045D01*
X2505446Y1403295D01*
X2505421Y1403338D01*
X2505395Y1403380D01*
X2504687Y1404706D01*
X2504666Y1404751D01*
X2504644Y1404796D01*
X2504069Y1406184D01*
X2504053Y1406232D01*
X2504035Y1406278D01*
X2503599Y1407716D01*
X2503588Y1407764D01*
X2503575Y1407813D01*
X2503282Y1409287D01*
X2503275Y1409336D01*
X2503267Y1409386D01*
X2503120Y1410881D01*
X2503118Y1410931D01*
X2503115Y1410981D01*
Y1411732D01*
Y1412483D01*
X2503118Y1412533D01*
X2503120Y1412583D01*
X2503267Y1414079D01*
X2503275Y1414128D01*
X2503282Y1414177D01*
X2503575Y1415651D01*
X2503588Y1415700D01*
X2503599Y1415748D01*
X2504035Y1417186D01*
X2504053Y1417232D01*
X2504069Y1417280D01*
X2504644Y1418668D01*
X2504666Y1418713D01*
X2504687Y1418758D01*
X2505395Y1420083D01*
X2505421Y1420126D01*
X2505446Y1420169D01*
X2506281Y1421419D01*
X2506311Y1421458D01*
X2506341Y1421499D01*
X2507294Y1422660D01*
X2507328Y1422697D01*
X2507361Y1422734D01*
X2508424Y1423797D01*
X2508461Y1423830D01*
X2508498Y1423864D01*
X2509659Y1424817D01*
X2509700Y1424846D01*
X2509739Y1424877D01*
X2510989Y1425712D01*
X2511032Y1425737D01*
X2511075Y1425763D01*
X2512400Y1426471D01*
X2512445Y1426492D01*
X2512490Y1426514D01*
X2513878Y1427089D01*
X2513926Y1427105D01*
X2513972Y1427123D01*
X2515410Y1427559D01*
X2515458Y1427570D01*
X2515507Y1427583D01*
X2516981Y1427876D01*
X2517030Y1427883D01*
X2517079Y1427891D01*
X2518575Y1428038D01*
X2518625Y1428040D01*
X2518675Y1428043D01*
X2520177D01*
X2520227Y1428040D01*
D02*
G37*
G36*
X2741207Y1342950D02*
X2741257Y1342948D01*
X2742752Y1342801D01*
X2742802Y1342793D01*
X2742851Y1342786D01*
X2744325Y1342493D01*
X2744373Y1342480D01*
X2744422Y1342469D01*
X2745860Y1342033D01*
X2745906Y1342015D01*
X2745954Y1341999D01*
X2747342Y1341424D01*
X2747387Y1341402D01*
X2747432Y1341381D01*
X2748758Y1340673D01*
X2748800Y1340647D01*
X2748843Y1340621D01*
X2750092Y1339787D01*
X2750132Y1339756D01*
X2750173Y1339727D01*
X2751334Y1338774D01*
X2751371Y1338740D01*
X2751408Y1338707D01*
X2752471Y1337644D01*
X2752504Y1337607D01*
X2752538Y1337570D01*
X2753491Y1336409D01*
X2753520Y1336368D01*
X2753551Y1336329D01*
X2754385Y1335079D01*
X2754410Y1335036D01*
X2754437Y1334993D01*
X2755145Y1333668D01*
X2755166Y1333623D01*
X2755188Y1333578D01*
X2755763Y1332190D01*
X2755779Y1332142D01*
X2755797Y1332096D01*
X2756233Y1330658D01*
X2756244Y1330610D01*
X2756257Y1330561D01*
X2756550Y1329087D01*
X2756557Y1329038D01*
X2756565Y1328988D01*
X2756712Y1327493D01*
X2756714Y1327443D01*
X2756717Y1327393D01*
Y1326642D01*
Y1325891D01*
X2756714Y1325841D01*
X2756712Y1325791D01*
X2756565Y1324296D01*
X2756557Y1324246D01*
X2756550Y1324197D01*
X2756257Y1322723D01*
X2756244Y1322674D01*
X2756233Y1322626D01*
X2755797Y1321188D01*
X2755779Y1321142D01*
X2755763Y1321094D01*
X2755188Y1319706D01*
X2755166Y1319661D01*
X2755145Y1319616D01*
X2754437Y1318291D01*
X2754410Y1318248D01*
X2754385Y1318205D01*
X2753551Y1316955D01*
X2753521Y1316916D01*
X2753491Y1316875D01*
X2752538Y1315714D01*
X2752504Y1315677D01*
X2752471Y1315640D01*
X2751408Y1314577D01*
X2751371Y1314544D01*
X2751335Y1314510D01*
X2750173Y1313557D01*
X2750132Y1313528D01*
X2750092Y1313497D01*
X2748843Y1312663D01*
X2748800Y1312637D01*
X2748758Y1312611D01*
X2747432Y1311903D01*
X2747387Y1311882D01*
X2747342Y1311860D01*
X2745954Y1311285D01*
X2745906Y1311269D01*
X2745860Y1311251D01*
X2744422Y1310815D01*
X2744373Y1310804D01*
X2744325Y1310791D01*
X2742851Y1310498D01*
X2742802Y1310491D01*
X2742752Y1310483D01*
X2741257Y1310336D01*
X2741207Y1310334D01*
X2741157Y1310331D01*
X2740406Y1310331D01*
X2740406D01*
D01*
X2739655D01*
X2739605Y1310334D01*
X2739555Y1310336D01*
X2738059Y1310483D01*
X2738010Y1310491D01*
X2737961Y1310498D01*
X2736487Y1310791D01*
X2736438Y1310804D01*
X2736390Y1310815D01*
X2734952Y1311251D01*
X2734906Y1311269D01*
X2734858Y1311285D01*
X2733470Y1311860D01*
X2733425Y1311882D01*
X2733380Y1311903D01*
X2732054Y1312611D01*
X2732012Y1312637D01*
X2731969Y1312663D01*
X2730719Y1313497D01*
X2730680Y1313528D01*
X2730639Y1313557D01*
X2729478Y1314510D01*
X2729441Y1314544D01*
X2729404Y1314577D01*
X2728341Y1315640D01*
X2728308Y1315677D01*
X2728274Y1315714D01*
X2727321Y1316875D01*
X2727292Y1316916D01*
X2727261Y1316955D01*
X2726426Y1318205D01*
X2726401Y1318248D01*
X2726375Y1318291D01*
X2725667Y1319616D01*
X2725646Y1319661D01*
X2725624Y1319706D01*
X2725049Y1321094D01*
X2725033Y1321142D01*
X2725015Y1321188D01*
X2724579Y1322626D01*
X2724568Y1322674D01*
X2724555Y1322723D01*
X2724262Y1324197D01*
X2724255Y1324246D01*
X2724247Y1324296D01*
X2724100Y1325791D01*
X2724098Y1325841D01*
X2724095Y1325891D01*
Y1326642D01*
Y1327393D01*
X2724098Y1327443D01*
X2724100Y1327493D01*
X2724247Y1328988D01*
X2724255Y1329038D01*
X2724262Y1329087D01*
X2724555Y1330561D01*
X2724568Y1330610D01*
X2724579Y1330658D01*
X2725015Y1332096D01*
X2725033Y1332142D01*
X2725049Y1332190D01*
X2725624Y1333578D01*
X2725646Y1333623D01*
X2725667Y1333668D01*
X2726375Y1334993D01*
X2726401Y1335036D01*
X2726426Y1335079D01*
X2727261Y1336329D01*
X2727292Y1336368D01*
X2727321Y1336409D01*
X2728274Y1337570D01*
X2728308Y1337607D01*
X2728341Y1337644D01*
X2729404Y1338707D01*
X2729441Y1338740D01*
X2729478Y1338774D01*
X2730639Y1339727D01*
X2730680Y1339756D01*
X2730719Y1339787D01*
X2731969Y1340621D01*
X2732012Y1340647D01*
X2732054Y1340673D01*
X2733380Y1341381D01*
X2733425Y1341402D01*
X2733470Y1341424D01*
X2734858Y1341999D01*
X2734906Y1342015D01*
X2734952Y1342033D01*
X2736390Y1342469D01*
X2736438Y1342480D01*
X2736487Y1342493D01*
X2737961Y1342786D01*
X2738010Y1342793D01*
X2738059Y1342801D01*
X2739555Y1342948D01*
X2739605Y1342950D01*
X2739655Y1342953D01*
X2741157D01*
X2741207Y1342950D01*
D02*
G37*
G36*
X1954569Y1342188D02*
X1954619Y1342186D01*
X1956115Y1342039D01*
X1956164Y1342031D01*
X1956213Y1342024D01*
X1957687Y1341731D01*
X1957736Y1341718D01*
X1957784Y1341707D01*
X1959222Y1341271D01*
X1959268Y1341253D01*
X1959316Y1341237D01*
X1960704Y1340662D01*
X1960749Y1340640D01*
X1960794Y1340619D01*
X1962119Y1339911D01*
X1962162Y1339884D01*
X1962205Y1339859D01*
X1963455Y1339025D01*
X1963494Y1338994D01*
X1963535Y1338965D01*
X1964696Y1338012D01*
X1964733Y1337978D01*
X1964770Y1337945D01*
X1965833Y1336882D01*
X1965866Y1336845D01*
X1965900Y1336808D01*
X1966853Y1335647D01*
X1966882Y1335606D01*
X1966913Y1335567D01*
X1967747Y1334317D01*
X1967773Y1334274D01*
X1967799Y1334232D01*
X1968507Y1332906D01*
X1968528Y1332861D01*
X1968550Y1332816D01*
X1969125Y1331428D01*
X1969141Y1331380D01*
X1969159Y1331334D01*
X1969595Y1329896D01*
X1969606Y1329848D01*
X1969619Y1329799D01*
X1969912Y1328325D01*
X1969919Y1328276D01*
X1969927Y1328226D01*
X1970074Y1326731D01*
X1970076Y1326681D01*
X1970079Y1326631D01*
Y1325880D01*
Y1325129D01*
X1970076Y1325079D01*
X1970074Y1325029D01*
X1969927Y1323533D01*
X1969919Y1323484D01*
X1969912Y1323435D01*
X1969619Y1321961D01*
X1969606Y1321912D01*
X1969595Y1321864D01*
X1969159Y1320426D01*
X1969141Y1320380D01*
X1969125Y1320332D01*
X1968550Y1318944D01*
X1968528Y1318899D01*
X1968507Y1318854D01*
X1967799Y1317529D01*
X1967773Y1317486D01*
X1967747Y1317443D01*
X1966913Y1316193D01*
X1966882Y1316154D01*
X1966853Y1316113D01*
X1965900Y1314952D01*
X1965866Y1314915D01*
X1965833Y1314878D01*
X1964770Y1313815D01*
X1964733Y1313782D01*
X1964696Y1313748D01*
X1963535Y1312795D01*
X1963494Y1312766D01*
X1963455Y1312735D01*
X1962205Y1311900D01*
X1962162Y1311875D01*
X1962119Y1311849D01*
X1960794Y1311141D01*
X1960749Y1311120D01*
X1960704Y1311098D01*
X1959316Y1310523D01*
X1959268Y1310507D01*
X1959222Y1310489D01*
X1957784Y1310053D01*
X1957736Y1310042D01*
X1957687Y1310029D01*
X1956213Y1309736D01*
X1956164Y1309729D01*
X1956114Y1309721D01*
X1954619Y1309574D01*
X1954569Y1309572D01*
X1954519Y1309569D01*
X1953768Y1309569D01*
X1953768D01*
D01*
X1953017D01*
X1952967Y1309572D01*
X1952917Y1309574D01*
X1951422Y1309721D01*
X1951372Y1309729D01*
X1951323Y1309736D01*
X1949849Y1310029D01*
X1949800Y1310042D01*
X1949752Y1310053D01*
X1948314Y1310489D01*
X1948268Y1310507D01*
X1948220Y1310523D01*
X1946832Y1311098D01*
X1946787Y1311120D01*
X1946742Y1311141D01*
X1945417Y1311849D01*
X1945374Y1311875D01*
X1945331Y1311900D01*
X1944081Y1312735D01*
X1944042Y1312766D01*
X1944001Y1312795D01*
X1942840Y1313748D01*
X1942803Y1313782D01*
X1942766Y1313815D01*
X1941703Y1314878D01*
X1941670Y1314915D01*
X1941636Y1314952D01*
X1940683Y1316113D01*
X1940654Y1316154D01*
X1940623Y1316193D01*
X1939789Y1317443D01*
X1939763Y1317486D01*
X1939737Y1317529D01*
X1939029Y1318854D01*
X1939008Y1318899D01*
X1938986Y1318944D01*
X1938411Y1320332D01*
X1938395Y1320380D01*
X1938377Y1320426D01*
X1937941Y1321864D01*
X1937930Y1321912D01*
X1937917Y1321961D01*
X1937624Y1323435D01*
X1937617Y1323484D01*
X1937609Y1323533D01*
X1937462Y1325029D01*
X1937460Y1325079D01*
X1937457Y1325129D01*
Y1325880D01*
Y1326631D01*
X1937460Y1326681D01*
X1937462Y1326731D01*
X1937609Y1328226D01*
X1937617Y1328276D01*
X1937624Y1328325D01*
X1937917Y1329799D01*
X1937930Y1329848D01*
X1937941Y1329896D01*
X1938377Y1331334D01*
X1938395Y1331380D01*
X1938411Y1331428D01*
X1938986Y1332816D01*
X1939008Y1332861D01*
X1939029Y1332906D01*
X1939737Y1334232D01*
X1939763Y1334274D01*
X1939789Y1334317D01*
X1940623Y1335567D01*
X1940654Y1335606D01*
X1940683Y1335647D01*
X1941636Y1336808D01*
X1941670Y1336845D01*
X1941703Y1336882D01*
X1942766Y1337945D01*
X1942803Y1337978D01*
X1942840Y1338012D01*
X1944001Y1338965D01*
X1944042Y1338994D01*
X1944081Y1339025D01*
X1945331Y1339859D01*
X1945374Y1339884D01*
X1945417Y1339911D01*
X1946742Y1340619D01*
X1946787Y1340640D01*
X1946832Y1340662D01*
X1948220Y1341237D01*
X1948268Y1341253D01*
X1948314Y1341271D01*
X1949752Y1341707D01*
X1949800Y1341718D01*
X1949849Y1341731D01*
X1951323Y1342024D01*
X1951372Y1342031D01*
X1951422Y1342039D01*
X1952917Y1342186D01*
X1952967Y1342188D01*
X1953017Y1342191D01*
X1954519D01*
X1954569Y1342188D01*
D02*
G37*
G36*
X2293151Y1341680D02*
X2293201Y1341678D01*
X2294697Y1341531D01*
X2294746Y1341523D01*
X2294795Y1341516D01*
X2296269Y1341223D01*
X2296318Y1341210D01*
X2296366Y1341199D01*
X2297804Y1340763D01*
X2297850Y1340745D01*
X2297898Y1340729D01*
X2299286Y1340154D01*
X2299331Y1340132D01*
X2299376Y1340111D01*
X2300701Y1339403D01*
X2300744Y1339377D01*
X2300787Y1339352D01*
X2302037Y1338517D01*
X2302076Y1338486D01*
X2302117Y1338457D01*
X2303278Y1337504D01*
X2303315Y1337470D01*
X2303352Y1337437D01*
X2304415Y1336374D01*
X2304448Y1336337D01*
X2304482Y1336300D01*
X2305435Y1335139D01*
X2305464Y1335098D01*
X2305495Y1335059D01*
X2306329Y1333809D01*
X2306355Y1333766D01*
X2306381Y1333723D01*
X2307089Y1332398D01*
X2307110Y1332353D01*
X2307132Y1332308D01*
X2307707Y1330920D01*
X2307723Y1330872D01*
X2307741Y1330826D01*
X2308177Y1329388D01*
X2308188Y1329340D01*
X2308201Y1329291D01*
X2308494Y1327817D01*
X2308501Y1327768D01*
X2308509Y1327719D01*
X2308656Y1326223D01*
X2308658Y1326173D01*
X2308661Y1326123D01*
Y1325372D01*
Y1324621D01*
X2308658Y1324571D01*
X2308656Y1324521D01*
X2308509Y1323026D01*
X2308501Y1322976D01*
X2308494Y1322927D01*
X2308201Y1321453D01*
X2308188Y1321404D01*
X2308177Y1321356D01*
X2307741Y1319918D01*
X2307723Y1319872D01*
X2307707Y1319824D01*
X2307132Y1318436D01*
X2307110Y1318391D01*
X2307089Y1318346D01*
X2306381Y1317021D01*
X2306355Y1316978D01*
X2306329Y1316935D01*
X2305495Y1315685D01*
X2305464Y1315646D01*
X2305435Y1315605D01*
X2304482Y1314444D01*
X2304448Y1314407D01*
X2304415Y1314370D01*
X2303352Y1313307D01*
X2303315Y1313274D01*
X2303278Y1313240D01*
X2302117Y1312287D01*
X2302076Y1312258D01*
X2302037Y1312227D01*
X2300787Y1311393D01*
X2300744Y1311367D01*
X2300701Y1311341D01*
X2299376Y1310633D01*
X2299331Y1310612D01*
X2299286Y1310590D01*
X2297898Y1310015D01*
X2297850Y1309999D01*
X2297804Y1309981D01*
X2296366Y1309545D01*
X2296318Y1309534D01*
X2296269Y1309521D01*
X2294795Y1309228D01*
X2294746Y1309221D01*
X2294696Y1309213D01*
X2293201Y1309066D01*
X2293151Y1309064D01*
X2293101Y1309061D01*
X2292350Y1309061D01*
X2292350D01*
D01*
X2291599D01*
X2291549Y1309064D01*
X2291499Y1309066D01*
X2290004Y1309213D01*
X2289954Y1309221D01*
X2289905Y1309228D01*
X2288431Y1309521D01*
X2288382Y1309534D01*
X2288334Y1309545D01*
X2286896Y1309981D01*
X2286850Y1309999D01*
X2286802Y1310015D01*
X2285414Y1310590D01*
X2285369Y1310612D01*
X2285324Y1310633D01*
X2283999Y1311341D01*
X2283956Y1311367D01*
X2283913Y1311393D01*
X2282663Y1312227D01*
X2282624Y1312258D01*
X2282583Y1312287D01*
X2281422Y1313240D01*
X2281385Y1313274D01*
X2281348Y1313307D01*
X2280285Y1314370D01*
X2280252Y1314407D01*
X2280218Y1314444D01*
X2279265Y1315605D01*
X2279236Y1315646D01*
X2279205Y1315685D01*
X2278371Y1316935D01*
X2278345Y1316978D01*
X2278319Y1317021D01*
X2277611Y1318346D01*
X2277590Y1318391D01*
X2277568Y1318436D01*
X2276993Y1319824D01*
X2276977Y1319872D01*
X2276959Y1319918D01*
X2276523Y1321356D01*
X2276512Y1321404D01*
X2276499Y1321453D01*
X2276206Y1322927D01*
X2276199Y1322976D01*
X2276191Y1323026D01*
X2276044Y1324521D01*
X2276042Y1324571D01*
X2276039Y1324621D01*
Y1325372D01*
Y1326123D01*
X2276042Y1326173D01*
X2276044Y1326223D01*
X2276191Y1327719D01*
X2276199Y1327768D01*
X2276206Y1327817D01*
X2276499Y1329291D01*
X2276512Y1329340D01*
X2276523Y1329388D01*
X2276959Y1330826D01*
X2276977Y1330872D01*
X2276993Y1330920D01*
X2277568Y1332308D01*
X2277590Y1332353D01*
X2277611Y1332398D01*
X2278319Y1333723D01*
X2278345Y1333766D01*
X2278371Y1333809D01*
X2279205Y1335059D01*
X2279236Y1335098D01*
X2279265Y1335139D01*
X2280218Y1336300D01*
X2280252Y1336337D01*
X2280285Y1336374D01*
X2281348Y1337437D01*
X2281385Y1337470D01*
X2281422Y1337504D01*
X2282583Y1338457D01*
X2282624Y1338486D01*
X2282663Y1338517D01*
X2283913Y1339352D01*
X2283956Y1339377D01*
X2283999Y1339403D01*
X2285324Y1340111D01*
X2285369Y1340132D01*
X2285414Y1340154D01*
X2286802Y1340729D01*
X2286850Y1340745D01*
X2286896Y1340763D01*
X2288334Y1341199D01*
X2288382Y1341210D01*
X2288431Y1341223D01*
X2289905Y1341516D01*
X2289954Y1341523D01*
X2290004Y1341531D01*
X2291499Y1341678D01*
X2291549Y1341680D01*
X2291599Y1341683D01*
X2293101D01*
X2293151Y1341680D01*
D02*
G37*
G36*
X2397037Y1339902D02*
X2397087Y1339900D01*
X2398582Y1339753D01*
X2398632Y1339745D01*
X2398681Y1339738D01*
X2400155Y1339445D01*
X2400204Y1339432D01*
X2400252Y1339421D01*
X2401690Y1338985D01*
X2401736Y1338967D01*
X2401784Y1338951D01*
X2403172Y1338376D01*
X2403217Y1338354D01*
X2403262Y1338333D01*
X2404588Y1337625D01*
X2404630Y1337599D01*
X2404673Y1337574D01*
X2405923Y1336739D01*
X2405962Y1336709D01*
X2406003Y1336679D01*
X2407164Y1335726D01*
X2407201Y1335692D01*
X2407238Y1335659D01*
X2408301Y1334596D01*
X2408334Y1334559D01*
X2408368Y1334522D01*
X2409321Y1333361D01*
X2409350Y1333320D01*
X2409381Y1333281D01*
X2410215Y1332031D01*
X2410240Y1331988D01*
X2410267Y1331945D01*
X2410975Y1330620D01*
X2410996Y1330575D01*
X2411018Y1330530D01*
X2411593Y1329142D01*
X2411609Y1329094D01*
X2411627Y1329048D01*
X2412063Y1327610D01*
X2412074Y1327562D01*
X2412087Y1327513D01*
X2412380Y1326039D01*
X2412387Y1325990D01*
X2412395Y1325941D01*
X2412542Y1324445D01*
X2412544Y1324395D01*
X2412547Y1324345D01*
Y1323594D01*
Y1322843D01*
X2412544Y1322793D01*
X2412542Y1322743D01*
X2412395Y1321248D01*
X2412387Y1321198D01*
X2412380Y1321149D01*
X2412087Y1319675D01*
X2412074Y1319626D01*
X2412063Y1319578D01*
X2411627Y1318140D01*
X2411609Y1318094D01*
X2411593Y1318046D01*
X2411018Y1316658D01*
X2410996Y1316613D01*
X2410975Y1316568D01*
X2410267Y1315242D01*
X2410240Y1315200D01*
X2410215Y1315157D01*
X2409381Y1313907D01*
X2409350Y1313868D01*
X2409321Y1313827D01*
X2408368Y1312666D01*
X2408334Y1312629D01*
X2408301Y1312592D01*
X2407238Y1311529D01*
X2407201Y1311496D01*
X2407164Y1311462D01*
X2406003Y1310509D01*
X2405962Y1310480D01*
X2405923Y1310449D01*
X2404673Y1309615D01*
X2404630Y1309590D01*
X2404588Y1309563D01*
X2403262Y1308855D01*
X2403217Y1308834D01*
X2403172Y1308812D01*
X2401784Y1308237D01*
X2401736Y1308221D01*
X2401690Y1308203D01*
X2400252Y1307767D01*
X2400204Y1307756D01*
X2400155Y1307743D01*
X2398681Y1307450D01*
X2398632Y1307443D01*
X2398582Y1307435D01*
X2397087Y1307288D01*
X2397037Y1307286D01*
X2396987Y1307283D01*
X2396236Y1307283D01*
X2396236D01*
D01*
X2395485D01*
X2395435Y1307286D01*
X2395385Y1307288D01*
X2393889Y1307435D01*
X2393840Y1307443D01*
X2393791Y1307450D01*
X2392317Y1307743D01*
X2392268Y1307756D01*
X2392220Y1307767D01*
X2390782Y1308203D01*
X2390736Y1308221D01*
X2390688Y1308237D01*
X2389300Y1308812D01*
X2389255Y1308834D01*
X2389210Y1308855D01*
X2387885Y1309563D01*
X2387842Y1309590D01*
X2387799Y1309615D01*
X2386549Y1310449D01*
X2386510Y1310479D01*
X2386469Y1310509D01*
X2385308Y1311462D01*
X2385271Y1311496D01*
X2385234Y1311529D01*
X2384171Y1312592D01*
X2384138Y1312629D01*
X2384104Y1312666D01*
X2383151Y1313827D01*
X2383122Y1313868D01*
X2383091Y1313907D01*
X2382256Y1315157D01*
X2382231Y1315200D01*
X2382205Y1315242D01*
X2381497Y1316568D01*
X2381476Y1316613D01*
X2381454Y1316658D01*
X2380879Y1318046D01*
X2380863Y1318094D01*
X2380845Y1318140D01*
X2380409Y1319578D01*
X2380398Y1319626D01*
X2380385Y1319675D01*
X2380092Y1321149D01*
X2380085Y1321198D01*
X2380077Y1321248D01*
X2379930Y1322743D01*
X2379928Y1322793D01*
X2379925Y1322843D01*
Y1323594D01*
Y1324345D01*
X2379928Y1324395D01*
X2379930Y1324445D01*
X2380077Y1325941D01*
X2380085Y1325990D01*
X2380092Y1326039D01*
X2380385Y1327513D01*
X2380398Y1327562D01*
X2380409Y1327610D01*
X2380845Y1329048D01*
X2380863Y1329094D01*
X2380879Y1329142D01*
X2381454Y1330530D01*
X2381476Y1330575D01*
X2381497Y1330620D01*
X2382205Y1331945D01*
X2382231Y1331988D01*
X2382256Y1332031D01*
X2383091Y1333281D01*
X2383121Y1333320D01*
X2383151Y1333361D01*
X2384104Y1334522D01*
X2384138Y1334559D01*
X2384171Y1334596D01*
X2385234Y1335659D01*
X2385271Y1335692D01*
X2385308Y1335726D01*
X2386469Y1336679D01*
X2386510Y1336708D01*
X2386549Y1336739D01*
X2387799Y1337574D01*
X2387842Y1337599D01*
X2387885Y1337625D01*
X2389210Y1338333D01*
X2389255Y1338354D01*
X2389300Y1338376D01*
X2390688Y1338951D01*
X2390736Y1338967D01*
X2390782Y1338985D01*
X2392220Y1339421D01*
X2392268Y1339432D01*
X2392317Y1339445D01*
X2393791Y1339738D01*
X2393840Y1339745D01*
X2393889Y1339753D01*
X2395385Y1339900D01*
X2395435Y1339902D01*
X2395485Y1339905D01*
X2396987D01*
X2397037Y1339902D01*
D02*
G37*
G36*
X2492033Y926754D02*
X2492083Y926752D01*
X2493578Y926605D01*
X2493628Y926597D01*
X2493677Y926590D01*
X2495151Y926297D01*
X2495200Y926284D01*
X2495248Y926273D01*
X2496686Y925837D01*
X2496732Y925819D01*
X2496780Y925803D01*
X2498168Y925228D01*
X2498213Y925206D01*
X2498258Y925185D01*
X2499583Y924477D01*
X2499626Y924451D01*
X2499669Y924426D01*
X2500919Y923591D01*
X2500958Y923560D01*
X2500999Y923531D01*
X2502160Y922578D01*
X2502197Y922544D01*
X2502234Y922511D01*
X2503297Y921448D01*
X2503330Y921411D01*
X2503364Y921374D01*
X2504317Y920213D01*
X2504346Y920172D01*
X2504377Y920133D01*
X2505211Y918883D01*
X2505237Y918840D01*
X2505263Y918798D01*
X2505971Y917472D01*
X2505992Y917427D01*
X2506014Y917382D01*
X2506589Y915994D01*
X2506605Y915946D01*
X2506623Y915900D01*
X2507059Y914462D01*
X2507070Y914414D01*
X2507083Y914365D01*
X2507376Y912891D01*
X2507383Y912842D01*
X2507391Y912793D01*
X2507538Y911297D01*
X2507540Y911247D01*
X2507543Y911197D01*
Y910446D01*
Y909695D01*
X2507540Y909645D01*
X2507538Y909595D01*
X2507391Y908100D01*
X2507383Y908050D01*
X2507376Y908001D01*
X2507083Y906527D01*
X2507070Y906478D01*
X2507059Y906430D01*
X2506623Y904992D01*
X2506605Y904946D01*
X2506589Y904898D01*
X2506014Y903510D01*
X2505992Y903465D01*
X2505971Y903420D01*
X2505263Y902094D01*
X2505237Y902052D01*
X2505211Y902009D01*
X2504377Y900759D01*
X2504346Y900720D01*
X2504317Y900679D01*
X2503364Y899518D01*
X2503330Y899481D01*
X2503297Y899444D01*
X2502234Y898381D01*
X2502197Y898348D01*
X2502160Y898314D01*
X2500999Y897361D01*
X2500958Y897332D01*
X2500919Y897301D01*
X2499669Y896467D01*
X2499626Y896441D01*
X2499583Y896415D01*
X2498258Y895707D01*
X2498213Y895686D01*
X2498168Y895664D01*
X2496780Y895089D01*
X2496732Y895073D01*
X2496686Y895055D01*
X2495248Y894619D01*
X2495200Y894608D01*
X2495151Y894595D01*
X2493677Y894302D01*
X2493628Y894295D01*
X2493578Y894287D01*
X2492083Y894140D01*
X2492033Y894138D01*
X2491983Y894135D01*
X2491232Y894135D01*
X2491232D01*
D01*
X2490481D01*
X2490431Y894138D01*
X2490381Y894140D01*
X2488885Y894287D01*
X2488836Y894295D01*
X2488787Y894302D01*
X2487313Y894595D01*
X2487264Y894608D01*
X2487216Y894619D01*
X2485778Y895055D01*
X2485732Y895073D01*
X2485684Y895089D01*
X2484296Y895664D01*
X2484251Y895686D01*
X2484206Y895707D01*
X2482881Y896415D01*
X2482838Y896441D01*
X2482795Y896467D01*
X2481545Y897301D01*
X2481506Y897331D01*
X2481465Y897361D01*
X2480304Y898314D01*
X2480267Y898348D01*
X2480230Y898381D01*
X2479167Y899444D01*
X2479134Y899481D01*
X2479100Y899518D01*
X2478147Y900679D01*
X2478118Y900720D01*
X2478087Y900759D01*
X2477253Y902009D01*
X2477227Y902052D01*
X2477201Y902094D01*
X2476493Y903420D01*
X2476472Y903465D01*
X2476450Y903510D01*
X2475875Y904898D01*
X2475859Y904946D01*
X2475841Y904992D01*
X2475405Y906430D01*
X2475394Y906478D01*
X2475381Y906527D01*
X2475088Y908001D01*
X2475081Y908050D01*
X2475073Y908100D01*
X2474926Y909595D01*
X2474924Y909645D01*
X2474921Y909695D01*
Y910446D01*
Y911197D01*
X2474924Y911247D01*
X2474926Y911297D01*
X2475073Y912793D01*
X2475081Y912842D01*
X2475088Y912891D01*
X2475381Y914365D01*
X2475394Y914414D01*
X2475405Y914462D01*
X2475841Y915900D01*
X2475859Y915946D01*
X2475875Y915994D01*
X2476450Y917382D01*
X2476472Y917427D01*
X2476493Y917472D01*
X2477201Y918798D01*
X2477227Y918840D01*
X2477253Y918883D01*
X2478087Y920133D01*
X2478118Y920172D01*
X2478147Y920213D01*
X2479100Y921374D01*
X2479134Y921411D01*
X2479167Y921448D01*
X2480230Y922511D01*
X2480267Y922544D01*
X2480304Y922578D01*
X2481465Y923531D01*
X2481506Y923560D01*
X2481545Y923591D01*
X2482795Y924426D01*
X2482838Y924451D01*
X2482881Y924477D01*
X2484206Y925185D01*
X2484251Y925206D01*
X2484296Y925228D01*
X2485684Y925803D01*
X2485732Y925819D01*
X2485778Y925837D01*
X2487216Y926273D01*
X2487264Y926284D01*
X2487313Y926297D01*
X2488787Y926590D01*
X2488836Y926597D01*
X2488885Y926605D01*
X2490381Y926752D01*
X2490431Y926754D01*
X2490481Y926757D01*
X2491983D01*
X2492033Y926754D01*
D02*
G37*
G36*
X2043723D02*
X2043773Y926752D01*
X2045269Y926605D01*
X2045318Y926597D01*
X2045367Y926590D01*
X2046841Y926297D01*
X2046890Y926284D01*
X2046938Y926273D01*
X2048376Y925837D01*
X2048422Y925819D01*
X2048470Y925803D01*
X2049858Y925228D01*
X2049903Y925206D01*
X2049948Y925185D01*
X2051273Y924477D01*
X2051316Y924451D01*
X2051359Y924426D01*
X2052609Y923591D01*
X2052648Y923560D01*
X2052689Y923531D01*
X2053850Y922578D01*
X2053887Y922544D01*
X2053924Y922511D01*
X2054987Y921448D01*
X2055020Y921411D01*
X2055054Y921374D01*
X2056007Y920213D01*
X2056036Y920172D01*
X2056067Y920133D01*
X2056902Y918883D01*
X2056927Y918840D01*
X2056953Y918798D01*
X2057661Y917472D01*
X2057682Y917427D01*
X2057704Y917382D01*
X2058279Y915994D01*
X2058295Y915946D01*
X2058313Y915900D01*
X2058749Y914462D01*
X2058760Y914414D01*
X2058773Y914365D01*
X2059066Y912891D01*
X2059073Y912842D01*
X2059081Y912793D01*
X2059228Y911297D01*
X2059230Y911247D01*
X2059233Y911197D01*
Y910446D01*
Y909695D01*
X2059230Y909645D01*
X2059228Y909595D01*
X2059081Y908100D01*
X2059073Y908050D01*
X2059066Y908001D01*
X2058773Y906527D01*
X2058760Y906478D01*
X2058749Y906430D01*
X2058313Y904992D01*
X2058295Y904946D01*
X2058279Y904898D01*
X2057704Y903510D01*
X2057682Y903465D01*
X2057661Y903420D01*
X2056953Y902094D01*
X2056927Y902052D01*
X2056902Y902009D01*
X2056067Y900759D01*
X2056037Y900720D01*
X2056007Y900679D01*
X2055054Y899518D01*
X2055020Y899481D01*
X2054987Y899444D01*
X2053924Y898381D01*
X2053887Y898348D01*
X2053850Y898314D01*
X2052689Y897361D01*
X2052648Y897332D01*
X2052609Y897301D01*
X2051359Y896467D01*
X2051316Y896441D01*
X2051273Y896415D01*
X2049948Y895707D01*
X2049903Y895686D01*
X2049858Y895664D01*
X2048470Y895089D01*
X2048422Y895073D01*
X2048376Y895055D01*
X2046938Y894619D01*
X2046890Y894608D01*
X2046841Y894595D01*
X2045367Y894302D01*
X2045318Y894295D01*
X2045268Y894287D01*
X2043773Y894140D01*
X2043723Y894138D01*
X2043673Y894135D01*
X2042922Y894135D01*
X2042922D01*
D01*
X2042171D01*
X2042121Y894138D01*
X2042071Y894140D01*
X2040576Y894287D01*
X2040526Y894295D01*
X2040477Y894302D01*
X2039003Y894595D01*
X2038954Y894608D01*
X2038906Y894619D01*
X2037468Y895055D01*
X2037422Y895073D01*
X2037374Y895089D01*
X2035986Y895664D01*
X2035941Y895686D01*
X2035896Y895707D01*
X2034570Y896415D01*
X2034528Y896441D01*
X2034485Y896467D01*
X2033235Y897301D01*
X2033196Y897331D01*
X2033155Y897361D01*
X2031994Y898314D01*
X2031957Y898348D01*
X2031920Y898381D01*
X2030857Y899444D01*
X2030824Y899481D01*
X2030790Y899518D01*
X2029837Y900679D01*
X2029808Y900720D01*
X2029777Y900759D01*
X2028943Y902009D01*
X2028918Y902052D01*
X2028891Y902094D01*
X2028183Y903420D01*
X2028162Y903465D01*
X2028140Y903510D01*
X2027565Y904898D01*
X2027549Y904946D01*
X2027531Y904992D01*
X2027095Y906430D01*
X2027084Y906478D01*
X2027071Y906527D01*
X2026778Y908001D01*
X2026771Y908050D01*
X2026763Y908100D01*
X2026616Y909595D01*
X2026614Y909645D01*
X2026611Y909695D01*
Y910446D01*
Y911197D01*
X2026614Y911247D01*
X2026616Y911297D01*
X2026763Y912793D01*
X2026771Y912842D01*
X2026778Y912891D01*
X2027071Y914365D01*
X2027084Y914414D01*
X2027095Y914462D01*
X2027531Y915900D01*
X2027549Y915946D01*
X2027565Y915994D01*
X2028140Y917382D01*
X2028162Y917427D01*
X2028183Y917472D01*
X2028891Y918798D01*
X2028918Y918840D01*
X2028943Y918883D01*
X2029777Y920133D01*
X2029807Y920172D01*
X2029837Y920213D01*
X2030790Y921374D01*
X2030824Y921411D01*
X2030857Y921448D01*
X2031920Y922511D01*
X2031957Y922544D01*
X2031994Y922578D01*
X2033155Y923531D01*
X2033196Y923560D01*
X2033235Y923591D01*
X2034485Y924426D01*
X2034528Y924451D01*
X2034570Y924477D01*
X2035896Y925185D01*
X2035941Y925206D01*
X2035986Y925228D01*
X2037374Y925803D01*
X2037422Y925819D01*
X2037468Y925837D01*
X2038906Y926273D01*
X2038954Y926284D01*
X2039003Y926297D01*
X2040477Y926590D01*
X2040526Y926597D01*
X2040576Y926605D01*
X2042071Y926752D01*
X2042121Y926754D01*
X2042171Y926757D01*
X2043673D01*
X2043723Y926754D01*
D02*
G37*
G36*
X2285023Y925374D02*
X2285073Y925372D01*
X2286568Y925225D01*
X2286618Y925217D01*
X2286667Y925210D01*
X2288141Y924917D01*
X2288190Y924904D01*
X2288238Y924893D01*
X2289676Y924457D01*
X2289722Y924439D01*
X2289770Y924423D01*
X2291158Y923848D01*
X2291203Y923826D01*
X2291248Y923805D01*
X2292574Y923097D01*
X2292616Y923071D01*
X2292659Y923046D01*
X2293909Y922211D01*
X2293948Y922180D01*
X2293989Y922151D01*
X2295150Y921198D01*
X2295187Y921164D01*
X2295224Y921131D01*
X2296287Y920068D01*
X2296320Y920031D01*
X2296354Y919994D01*
X2297307Y918833D01*
X2297336Y918792D01*
X2297367Y918753D01*
X2298201Y917503D01*
X2298226Y917460D01*
X2298253Y917418D01*
X2298961Y916092D01*
X2298982Y916047D01*
X2299004Y916002D01*
X2299579Y914614D01*
X2299595Y914566D01*
X2299613Y914520D01*
X2300049Y913082D01*
X2300060Y913034D01*
X2300073Y912985D01*
X2300366Y911511D01*
X2300373Y911462D01*
X2300381Y911413D01*
X2300528Y909917D01*
X2300530Y909867D01*
X2300533Y909817D01*
Y909066D01*
Y908315D01*
X2300530Y908265D01*
X2300528Y908215D01*
X2300381Y906720D01*
X2300373Y906670D01*
X2300366Y906621D01*
X2300073Y905147D01*
X2300060Y905098D01*
X2300049Y905050D01*
X2299613Y903612D01*
X2299595Y903566D01*
X2299579Y903518D01*
X2299004Y902130D01*
X2298982Y902085D01*
X2298961Y902040D01*
X2298253Y900714D01*
X2298226Y900672D01*
X2298201Y900629D01*
X2297367Y899379D01*
X2297336Y899340D01*
X2297307Y899299D01*
X2296354Y898138D01*
X2296320Y898101D01*
X2296287Y898064D01*
X2295224Y897001D01*
X2295187Y896968D01*
X2295150Y896934D01*
X2293989Y895981D01*
X2293948Y895952D01*
X2293909Y895921D01*
X2292659Y895087D01*
X2292616Y895061D01*
X2292574Y895035D01*
X2291248Y894327D01*
X2291203Y894306D01*
X2291158Y894284D01*
X2289770Y893709D01*
X2289722Y893693D01*
X2289676Y893675D01*
X2288238Y893239D01*
X2288190Y893228D01*
X2288141Y893215D01*
X2286667Y892922D01*
X2286618Y892915D01*
X2286568Y892907D01*
X2285073Y892760D01*
X2285023Y892758D01*
X2284973Y892755D01*
X2284222Y892755D01*
X2284222D01*
D01*
X2283471D01*
X2283421Y892758D01*
X2283371Y892760D01*
X2281875Y892907D01*
X2281826Y892915D01*
X2281777Y892922D01*
X2280303Y893215D01*
X2280254Y893228D01*
X2280206Y893239D01*
X2278768Y893675D01*
X2278722Y893693D01*
X2278674Y893709D01*
X2277286Y894284D01*
X2277241Y894306D01*
X2277196Y894327D01*
X2275871Y895035D01*
X2275828Y895061D01*
X2275785Y895087D01*
X2274535Y895921D01*
X2274496Y895952D01*
X2274455Y895981D01*
X2273294Y896934D01*
X2273257Y896968D01*
X2273220Y897001D01*
X2272157Y898064D01*
X2272124Y898101D01*
X2272090Y898138D01*
X2271137Y899299D01*
X2271108Y899340D01*
X2271077Y899379D01*
X2270242Y900629D01*
X2270217Y900672D01*
X2270191Y900714D01*
X2269483Y902040D01*
X2269462Y902085D01*
X2269440Y902130D01*
X2268865Y903518D01*
X2268849Y903566D01*
X2268831Y903612D01*
X2268395Y905050D01*
X2268384Y905098D01*
X2268371Y905147D01*
X2268078Y906621D01*
X2268071Y906670D01*
X2268063Y906720D01*
X2267916Y908215D01*
X2267914Y908265D01*
X2267911Y908315D01*
Y909066D01*
Y909817D01*
X2267914Y909867D01*
X2267916Y909917D01*
X2268063Y911413D01*
X2268071Y911462D01*
X2268078Y911511D01*
X2268371Y912985D01*
X2268384Y913034D01*
X2268395Y913082D01*
X2268831Y914520D01*
X2268849Y914566D01*
X2268865Y914614D01*
X2269440Y916002D01*
X2269462Y916047D01*
X2269483Y916092D01*
X2270191Y917418D01*
X2270217Y917460D01*
X2270242Y917503D01*
X2271077Y918753D01*
X2271107Y918792D01*
X2271137Y918833D01*
X2272090Y919994D01*
X2272124Y920031D01*
X2272157Y920068D01*
X2273220Y921131D01*
X2273257Y921164D01*
X2273294Y921198D01*
X2274455Y922151D01*
X2274496Y922180D01*
X2274535Y922211D01*
X2275785Y923046D01*
X2275828Y923071D01*
X2275871Y923097D01*
X2277196Y923805D01*
X2277241Y923826D01*
X2277286Y923848D01*
X2278674Y924423D01*
X2278722Y924439D01*
X2278768Y924457D01*
X2280206Y924893D01*
X2280254Y924904D01*
X2280303Y924917D01*
X2281777Y925210D01*
X2281826Y925217D01*
X2281875Y925225D01*
X2283371Y925372D01*
X2283421Y925374D01*
X2283471Y925377D01*
X2284973D01*
X2285023Y925374D01*
D02*
G37*
G36*
X1839253D02*
X1839303Y925372D01*
X1840798Y925225D01*
X1840848Y925217D01*
X1840897Y925210D01*
X1842371Y924917D01*
X1842420Y924904D01*
X1842468Y924893D01*
X1843906Y924457D01*
X1843952Y924439D01*
X1844000Y924423D01*
X1845388Y923848D01*
X1845433Y923826D01*
X1845478Y923805D01*
X1846803Y923097D01*
X1846846Y923071D01*
X1846889Y923046D01*
X1848139Y922211D01*
X1848178Y922180D01*
X1848219Y922151D01*
X1849380Y921198D01*
X1849417Y921164D01*
X1849454Y921131D01*
X1850517Y920068D01*
X1850550Y920031D01*
X1850584Y919994D01*
X1851537Y918833D01*
X1851566Y918792D01*
X1851597Y918753D01*
X1852431Y917503D01*
X1852457Y917460D01*
X1852483Y917418D01*
X1853191Y916092D01*
X1853212Y916047D01*
X1853234Y916002D01*
X1853809Y914614D01*
X1853825Y914566D01*
X1853843Y914520D01*
X1854279Y913082D01*
X1854290Y913034D01*
X1854303Y912985D01*
X1854596Y911511D01*
X1854603Y911462D01*
X1854611Y911413D01*
X1854758Y909917D01*
X1854760Y909867D01*
X1854763Y909817D01*
Y909066D01*
Y908315D01*
X1854760Y908265D01*
X1854758Y908215D01*
X1854611Y906720D01*
X1854603Y906670D01*
X1854596Y906621D01*
X1854303Y905147D01*
X1854290Y905098D01*
X1854279Y905050D01*
X1853843Y903612D01*
X1853825Y903566D01*
X1853809Y903518D01*
X1853234Y902130D01*
X1853212Y902085D01*
X1853191Y902040D01*
X1852483Y900714D01*
X1852457Y900672D01*
X1852431Y900629D01*
X1851597Y899379D01*
X1851566Y899340D01*
X1851537Y899299D01*
X1850584Y898138D01*
X1850550Y898101D01*
X1850517Y898064D01*
X1849454Y897001D01*
X1849417Y896968D01*
X1849380Y896934D01*
X1848219Y895981D01*
X1848178Y895952D01*
X1848139Y895921D01*
X1846889Y895087D01*
X1846846Y895061D01*
X1846803Y895035D01*
X1845478Y894327D01*
X1845433Y894306D01*
X1845388Y894284D01*
X1844000Y893709D01*
X1843952Y893693D01*
X1843906Y893675D01*
X1842468Y893239D01*
X1842420Y893228D01*
X1842371Y893215D01*
X1840897Y892922D01*
X1840848Y892915D01*
X1840798Y892907D01*
X1839303Y892760D01*
X1839253Y892758D01*
X1839203Y892755D01*
X1838452Y892755D01*
X1838452D01*
D01*
X1837701D01*
X1837651Y892758D01*
X1837601Y892760D01*
X1836105Y892907D01*
X1836056Y892915D01*
X1836007Y892922D01*
X1834533Y893215D01*
X1834484Y893228D01*
X1834436Y893239D01*
X1832998Y893675D01*
X1832952Y893693D01*
X1832904Y893709D01*
X1831516Y894284D01*
X1831471Y894306D01*
X1831426Y894327D01*
X1830101Y895035D01*
X1830058Y895061D01*
X1830015Y895087D01*
X1828765Y895921D01*
X1828726Y895952D01*
X1828685Y895981D01*
X1827524Y896934D01*
X1827487Y896968D01*
X1827450Y897001D01*
X1826387Y898064D01*
X1826354Y898101D01*
X1826320Y898138D01*
X1825367Y899299D01*
X1825338Y899340D01*
X1825307Y899379D01*
X1824473Y900629D01*
X1824447Y900672D01*
X1824421Y900714D01*
X1823713Y902040D01*
X1823692Y902085D01*
X1823670Y902130D01*
X1823095Y903518D01*
X1823079Y903566D01*
X1823061Y903612D01*
X1822625Y905050D01*
X1822614Y905098D01*
X1822601Y905147D01*
X1822308Y906621D01*
X1822301Y906670D01*
X1822293Y906720D01*
X1822146Y908215D01*
X1822144Y908265D01*
X1822141Y908315D01*
Y909066D01*
Y909817D01*
X1822144Y909867D01*
X1822146Y909917D01*
X1822293Y911413D01*
X1822301Y911462D01*
X1822308Y911511D01*
X1822601Y912985D01*
X1822614Y913034D01*
X1822625Y913082D01*
X1823061Y914520D01*
X1823079Y914566D01*
X1823095Y914614D01*
X1823670Y916002D01*
X1823692Y916047D01*
X1823713Y916092D01*
X1824421Y917418D01*
X1824447Y917460D01*
X1824473Y917503D01*
X1825307Y918753D01*
X1825338Y918792D01*
X1825367Y918833D01*
X1826320Y919994D01*
X1826354Y920031D01*
X1826387Y920068D01*
X1827450Y921131D01*
X1827487Y921164D01*
X1827524Y921198D01*
X1828685Y922151D01*
X1828726Y922180D01*
X1828765Y922211D01*
X1830015Y923046D01*
X1830058Y923071D01*
X1830101Y923097D01*
X1831426Y923805D01*
X1831471Y923826D01*
X1831516Y923848D01*
X1832904Y924423D01*
X1832952Y924439D01*
X1832998Y924457D01*
X1834436Y924893D01*
X1834484Y924904D01*
X1834533Y924917D01*
X1836007Y925210D01*
X1836056Y925217D01*
X1836105Y925225D01*
X1837601Y925372D01*
X1837651Y925374D01*
X1837701Y925377D01*
X1839203D01*
X1839253Y925374D01*
D02*
G37*
G36*
X2658403Y711794D02*
X2658453Y711792D01*
X2659948Y711645D01*
X2659998Y711637D01*
X2660047Y711630D01*
X2661521Y711337D01*
X2661570Y711324D01*
X2661618Y711313D01*
X2663056Y710877D01*
X2663102Y710859D01*
X2663150Y710843D01*
X2664538Y710268D01*
X2664583Y710246D01*
X2664628Y710225D01*
X2665953Y709517D01*
X2665996Y709491D01*
X2666039Y709465D01*
X2667289Y708631D01*
X2667328Y708600D01*
X2667369Y708571D01*
X2668530Y707618D01*
X2668567Y707584D01*
X2668604Y707551D01*
X2669667Y706488D01*
X2669700Y706451D01*
X2669734Y706414D01*
X2670687Y705253D01*
X2670716Y705212D01*
X2670747Y705173D01*
X2671581Y703923D01*
X2671606Y703880D01*
X2671633Y703838D01*
X2672341Y702512D01*
X2672362Y702467D01*
X2672384Y702422D01*
X2672959Y701034D01*
X2672975Y700986D01*
X2672993Y700940D01*
X2673429Y699502D01*
X2673440Y699454D01*
X2673453Y699405D01*
X2673746Y697931D01*
X2673753Y697882D01*
X2673761Y697832D01*
X2673908Y696337D01*
X2673910Y696287D01*
X2673913Y696237D01*
Y695486D01*
Y694735D01*
X2673910Y694685D01*
X2673908Y694635D01*
X2673761Y693140D01*
X2673753Y693090D01*
X2673746Y693041D01*
X2673453Y691567D01*
X2673440Y691518D01*
X2673429Y691470D01*
X2672993Y690032D01*
X2672975Y689986D01*
X2672959Y689938D01*
X2672384Y688550D01*
X2672362Y688505D01*
X2672341Y688460D01*
X2671633Y687134D01*
X2671606Y687092D01*
X2671581Y687049D01*
X2670747Y685799D01*
X2670717Y685760D01*
X2670687Y685719D01*
X2669734Y684558D01*
X2669700Y684521D01*
X2669667Y684484D01*
X2668604Y683421D01*
X2668567Y683388D01*
X2668530Y683354D01*
X2667369Y682401D01*
X2667328Y682372D01*
X2667289Y682341D01*
X2666039Y681507D01*
X2665996Y681481D01*
X2665953Y681455D01*
X2664628Y680747D01*
X2664583Y680726D01*
X2664538Y680704D01*
X2663150Y680129D01*
X2663102Y680113D01*
X2663056Y680095D01*
X2661618Y679659D01*
X2661570Y679648D01*
X2661521Y679635D01*
X2660047Y679342D01*
X2659998Y679335D01*
X2659948Y679327D01*
X2658453Y679180D01*
X2658403Y679178D01*
X2658353Y679175D01*
X2657602Y679175D01*
X2657602D01*
D01*
X2656851D01*
X2656801Y679178D01*
X2656751Y679180D01*
X2655255Y679327D01*
X2655206Y679335D01*
X2655157Y679342D01*
X2653683Y679635D01*
X2653634Y679648D01*
X2653586Y679659D01*
X2652148Y680095D01*
X2652102Y680113D01*
X2652054Y680129D01*
X2650666Y680704D01*
X2650621Y680726D01*
X2650576Y680747D01*
X2649250Y681455D01*
X2649208Y681481D01*
X2649165Y681507D01*
X2647915Y682341D01*
X2647876Y682372D01*
X2647835Y682401D01*
X2646674Y683354D01*
X2646637Y683388D01*
X2646600Y683421D01*
X2645537Y684484D01*
X2645504Y684521D01*
X2645470Y684558D01*
X2644517Y685719D01*
X2644488Y685760D01*
X2644457Y685799D01*
X2643622Y687049D01*
X2643597Y687092D01*
X2643571Y687134D01*
X2642863Y688460D01*
X2642842Y688505D01*
X2642820Y688550D01*
X2642245Y689938D01*
X2642229Y689986D01*
X2642211Y690032D01*
X2641775Y691470D01*
X2641764Y691518D01*
X2641751Y691567D01*
X2641458Y693041D01*
X2641451Y693090D01*
X2641443Y693140D01*
X2641296Y694635D01*
X2641294Y694685D01*
X2641291Y694735D01*
Y695486D01*
Y696237D01*
X2641294Y696287D01*
X2641296Y696337D01*
X2641443Y697832D01*
X2641451Y697882D01*
X2641458Y697931D01*
X2641751Y699405D01*
X2641764Y699454D01*
X2641775Y699502D01*
X2642211Y700940D01*
X2642229Y700986D01*
X2642245Y701034D01*
X2642820Y702422D01*
X2642842Y702467D01*
X2642863Y702512D01*
X2643571Y703838D01*
X2643597Y703880D01*
X2643622Y703923D01*
X2644457Y705173D01*
X2644488Y705212D01*
X2644517Y705253D01*
X2645470Y706414D01*
X2645504Y706451D01*
X2645537Y706488D01*
X2646600Y707551D01*
X2646637Y707584D01*
X2646674Y707618D01*
X2647835Y708571D01*
X2647876Y708600D01*
X2647915Y708631D01*
X2649165Y709465D01*
X2649208Y709491D01*
X2649250Y709517D01*
X2650576Y710225D01*
X2650621Y710246D01*
X2650666Y710268D01*
X2652054Y710843D01*
X2652102Y710859D01*
X2652148Y710877D01*
X2653586Y711313D01*
X2653634Y711324D01*
X2653683Y711337D01*
X2655157Y711630D01*
X2655206Y711637D01*
X2655255Y711645D01*
X2656751Y711792D01*
X2656801Y711794D01*
X2656851Y711797D01*
X2658353D01*
X2658403Y711794D01*
D02*
G37*
G36*
X2206283D02*
X2206333Y711792D01*
X2207829Y711645D01*
X2207878Y711637D01*
X2207927Y711630D01*
X2209401Y711337D01*
X2209450Y711324D01*
X2209498Y711313D01*
X2210936Y710877D01*
X2210982Y710859D01*
X2211030Y710843D01*
X2212418Y710268D01*
X2212463Y710246D01*
X2212508Y710225D01*
X2213833Y709517D01*
X2213876Y709491D01*
X2213919Y709465D01*
X2215169Y708631D01*
X2215208Y708600D01*
X2215249Y708571D01*
X2216410Y707618D01*
X2216447Y707584D01*
X2216484Y707551D01*
X2217547Y706488D01*
X2217580Y706451D01*
X2217614Y706414D01*
X2218567Y705253D01*
X2218596Y705212D01*
X2218627Y705173D01*
X2219462Y703923D01*
X2219487Y703880D01*
X2219513Y703838D01*
X2220221Y702512D01*
X2220242Y702467D01*
X2220264Y702422D01*
X2220839Y701034D01*
X2220855Y700986D01*
X2220873Y700940D01*
X2221309Y699502D01*
X2221320Y699454D01*
X2221333Y699405D01*
X2221626Y697931D01*
X2221633Y697882D01*
X2221641Y697832D01*
X2221788Y696337D01*
X2221790Y696287D01*
X2221793Y696237D01*
Y695486D01*
Y694735D01*
X2221790Y694685D01*
X2221788Y694635D01*
X2221641Y693140D01*
X2221633Y693090D01*
X2221626Y693041D01*
X2221333Y691567D01*
X2221320Y691518D01*
X2221309Y691470D01*
X2220873Y690032D01*
X2220855Y689986D01*
X2220839Y689938D01*
X2220264Y688550D01*
X2220242Y688505D01*
X2220221Y688460D01*
X2219513Y687134D01*
X2219487Y687092D01*
X2219462Y687049D01*
X2218627Y685799D01*
X2218596Y685760D01*
X2218567Y685719D01*
X2217614Y684558D01*
X2217580Y684521D01*
X2217547Y684484D01*
X2216484Y683421D01*
X2216447Y683388D01*
X2216410Y683354D01*
X2215249Y682401D01*
X2215208Y682372D01*
X2215169Y682341D01*
X2213919Y681507D01*
X2213876Y681481D01*
X2213833Y681455D01*
X2212508Y680747D01*
X2212463Y680726D01*
X2212418Y680704D01*
X2211030Y680129D01*
X2210982Y680113D01*
X2210936Y680095D01*
X2209498Y679659D01*
X2209450Y679648D01*
X2209401Y679635D01*
X2207927Y679342D01*
X2207878Y679335D01*
X2207828Y679327D01*
X2206333Y679180D01*
X2206283Y679178D01*
X2206233Y679175D01*
X2205482Y679175D01*
X2205482D01*
D01*
X2204731D01*
X2204681Y679178D01*
X2204631Y679180D01*
X2203136Y679327D01*
X2203086Y679335D01*
X2203037Y679342D01*
X2201563Y679635D01*
X2201514Y679648D01*
X2201466Y679659D01*
X2200028Y680095D01*
X2199982Y680113D01*
X2199934Y680129D01*
X2198546Y680704D01*
X2198501Y680726D01*
X2198456Y680747D01*
X2197130Y681455D01*
X2197088Y681481D01*
X2197045Y681507D01*
X2195795Y682341D01*
X2195756Y682372D01*
X2195715Y682401D01*
X2194554Y683354D01*
X2194517Y683388D01*
X2194480Y683421D01*
X2193417Y684484D01*
X2193384Y684521D01*
X2193350Y684558D01*
X2192397Y685719D01*
X2192368Y685760D01*
X2192337Y685799D01*
X2191503Y687049D01*
X2191478Y687092D01*
X2191451Y687134D01*
X2190743Y688460D01*
X2190722Y688505D01*
X2190700Y688550D01*
X2190125Y689938D01*
X2190109Y689986D01*
X2190091Y690032D01*
X2189655Y691470D01*
X2189644Y691518D01*
X2189631Y691567D01*
X2189338Y693041D01*
X2189331Y693090D01*
X2189323Y693140D01*
X2189176Y694635D01*
X2189174Y694685D01*
X2189171Y694735D01*
Y695486D01*
Y696237D01*
X2189174Y696287D01*
X2189176Y696337D01*
X2189323Y697832D01*
X2189331Y697882D01*
X2189338Y697931D01*
X2189631Y699405D01*
X2189644Y699454D01*
X2189655Y699502D01*
X2190091Y700940D01*
X2190109Y700986D01*
X2190125Y701034D01*
X2190700Y702422D01*
X2190722Y702467D01*
X2190743Y702512D01*
X2191451Y703838D01*
X2191478Y703880D01*
X2191503Y703923D01*
X2192337Y705173D01*
X2192368Y705212D01*
X2192397Y705253D01*
X2193350Y706414D01*
X2193384Y706451D01*
X2193417Y706488D01*
X2194480Y707551D01*
X2194517Y707584D01*
X2194554Y707618D01*
X2195715Y708571D01*
X2195756Y708600D01*
X2195795Y708631D01*
X2197045Y709465D01*
X2197088Y709491D01*
X2197130Y709517D01*
X2198456Y710225D01*
X2198501Y710246D01*
X2198546Y710268D01*
X2199934Y710843D01*
X2199982Y710859D01*
X2200028Y710877D01*
X2201466Y711313D01*
X2201514Y711324D01*
X2201563Y711337D01*
X2203037Y711630D01*
X2203086Y711637D01*
X2203136Y711645D01*
X2204631Y711792D01*
X2204681Y711794D01*
X2204731Y711797D01*
X2206233D01*
X2206283Y711794D01*
D02*
G37*
D20*
X2014982Y2298216D02*
D03*
X2693162Y2299376D02*
D03*
D21*
X1992132Y2368416D02*
D03*
X2037832D02*
D03*
X2670312Y2369576D02*
D03*
X2716012D02*
D03*
D22*
X1954632Y958546D02*
D03*
X1935632D02*
D03*
X1945132Y938546D02*
D03*
X2402942Y958546D02*
D03*
X2383942D02*
D03*
X2393442Y938546D02*
D03*
D23*
X2450682Y1809566D02*
D03*
Y1855366D02*
D03*
D24*
X2383682Y1832466D02*
D03*
D25*
X2819943Y280079D02*
D03*
D26*
X1720252Y2052574D02*
D03*
X1860804Y341122D02*
D03*
X2309622D02*
D03*
X1924558Y1546352D02*
D03*
X1503934Y1745906D02*
D03*
X2253742Y2053446D02*
D03*
X2383282D02*
D03*
X3041904Y1548294D02*
D03*
X3460750Y1745144D02*
D03*
D27*
X1762252Y2052574D02*
D03*
X2295742Y2053446D02*
D03*
X2425282D02*
D03*
D28*
X1719326Y2099396D02*
D03*
Y2148926D02*
D03*
X1763522Y2098946D02*
D03*
Y2148476D02*
D03*
X2017522Y1182226D02*
D03*
Y1282556D02*
D03*
X2467102Y1182226D02*
D03*
Y1282556D02*
D03*
X2213102Y1182226D02*
D03*
Y1282556D02*
D03*
X2662682Y1182226D02*
D03*
Y1282556D02*
D03*
X2206752Y539276D02*
D03*
Y639606D02*
D03*
X2656332Y539276D02*
D03*
Y639606D02*
D03*
X1923542Y442116D02*
D03*
Y542446D02*
D03*
X2371852Y442116D02*
D03*
Y542446D02*
D03*
X2115312Y1230376D02*
D03*
Y1330706D02*
D03*
X2564892Y1231646D02*
D03*
Y1331976D02*
D03*
X1535684Y1364808D02*
D03*
Y1465138D02*
D03*
X3141903Y1366586D02*
D03*
Y1466916D02*
D03*
X2500122Y1880726D02*
D03*
Y1780396D02*
D03*
X1884172Y2467466D02*
D03*
Y2417936D02*
D03*
X2116582Y2339196D02*
D03*
Y2388726D02*
D03*
Y2425556D02*
D03*
Y2475086D02*
D03*
X1957832Y2323956D02*
D03*
Y2274426D02*
D03*
X2072132Y2323956D02*
D03*
Y2274426D02*
D03*
X1884172Y2022966D02*
D03*
Y2072496D02*
D03*
X1928622Y2022966D02*
D03*
Y2072496D02*
D03*
X1973072Y2022966D02*
D03*
Y2072496D02*
D03*
Y2108056D02*
D03*
Y2157586D02*
D03*
X1884172Y2109326D02*
D03*
Y2158856D02*
D03*
X1928622Y2109326D02*
D03*
Y2158856D02*
D03*
Y2195686D02*
D03*
Y2245216D02*
D03*
X1884172Y2195686D02*
D03*
Y2245216D02*
D03*
X2563622Y2468626D02*
D03*
Y2419096D02*
D03*
X2801112Y2341626D02*
D03*
Y2391156D02*
D03*
Y2427986D02*
D03*
Y2477516D02*
D03*
X2636012Y2325116D02*
D03*
Y2275586D02*
D03*
X2754122Y2325116D02*
D03*
Y2275586D02*
D03*
X2564060Y2024594D02*
D03*
Y2074124D02*
D03*
X2608510Y2024594D02*
D03*
Y2074124D02*
D03*
X2652960Y2024594D02*
D03*
Y2074124D02*
D03*
Y2109684D02*
D03*
Y2159214D02*
D03*
X2564060Y2110954D02*
D03*
Y2160484D02*
D03*
X2608510Y2110954D02*
D03*
Y2160484D02*
D03*
X2608072Y2196846D02*
D03*
Y2246376D02*
D03*
X2563622Y2196846D02*
D03*
Y2246376D02*
D03*
X2067052Y1236836D02*
D03*
Y1286366D02*
D03*
X2516632Y1236836D02*
D03*
Y1286366D02*
D03*
X1586230Y1410528D02*
D03*
Y1360998D02*
D03*
X3093135Y1410528D02*
D03*
Y1360998D02*
D03*
X2164842Y1236836D02*
D03*
Y1286366D02*
D03*
X2614422Y1236836D02*
D03*
Y1286366D02*
D03*
X1585722Y1496888D02*
D03*
Y1447358D02*
D03*
X3092881Y1496380D02*
D03*
Y1446850D02*
D03*
X1963928Y367064D02*
D03*
Y317534D02*
D03*
X2412746Y367064D02*
D03*
Y317534D02*
D03*
X1485900Y1496380D02*
D03*
Y1446850D02*
D03*
X3192449Y1498412D02*
D03*
Y1448882D02*
D03*
X2158492Y593886D02*
D03*
Y643416D02*
D03*
X2608072Y593886D02*
D03*
Y643416D02*
D03*
X2265172Y1070466D02*
D03*
Y1020936D02*
D03*
X2717292Y1070466D02*
D03*
Y1020936D02*
D03*
X1485827Y1410709D02*
D03*
Y1361179D02*
D03*
X3192449Y1412560D02*
D03*
Y1363030D02*
D03*
X1919478Y367064D02*
D03*
Y317534D02*
D03*
X2368296Y367064D02*
D03*
Y317534D02*
D03*
X2114042Y593886D02*
D03*
Y643416D02*
D03*
X2563622Y593886D02*
D03*
Y643416D02*
D03*
X1846072Y718006D02*
D03*
Y767536D02*
D03*
X2294382Y718006D02*
D03*
Y767536D02*
D03*
X1846072Y631646D02*
D03*
Y681176D02*
D03*
X2294382Y631646D02*
D03*
Y681176D02*
D03*
X2042922Y824086D02*
D03*
Y873616D02*
D03*
X2491232Y822816D02*
D03*
Y872346D02*
D03*
X1891792Y909066D02*
D03*
Y958596D02*
D03*
X2341372Y909066D02*
D03*
Y958596D02*
D03*
X1973072Y447496D02*
D03*
Y497026D02*
D03*
X2421382Y447496D02*
D03*
Y497026D02*
D03*
X1971802Y588466D02*
D03*
Y538936D02*
D03*
X2421382Y588466D02*
D03*
Y538936D02*
D03*
X1971802Y674826D02*
D03*
Y625296D02*
D03*
X2421382Y674826D02*
D03*
Y625296D02*
D03*
X2406142Y1696576D02*
D03*
X2356612D02*
D03*
X2406142Y1742296D02*
D03*
X2356612D02*
D03*
X1631950Y1410528D02*
D03*
Y1360998D02*
D03*
X3048177Y1410528D02*
D03*
Y1360998D02*
D03*
X1439926Y1410782D02*
D03*
Y1361252D02*
D03*
X3237153Y1412052D02*
D03*
Y1362522D02*
D03*
D29*
X2097532Y1022350D02*
D03*
X2131822D02*
D03*
X2097532Y1057910D02*
D03*
X2131822D02*
D03*
X2098040Y393192D02*
D03*
X2132330D02*
D03*
X2098040Y428752D02*
D03*
X2132330D02*
D03*
X2547874Y391922D02*
D03*
X2582164D02*
D03*
X2547874Y427482D02*
D03*
X2582164D02*
D03*
X2547620Y1022350D02*
D03*
X2581910D02*
D03*
X2547620Y1057910D02*
D03*
X2581910D02*
D03*
X1762252Y1542288D02*
D03*
X1796542D02*
D03*
X1762252Y1577848D02*
D03*
X1796542D02*
D03*
X2882138Y1542288D02*
D03*
X2916428D02*
D03*
X2882138Y1577848D02*
D03*
X2916428D02*
D03*
X1342136Y1742186D02*
D03*
X1376426D02*
D03*
X1342136Y1777746D02*
D03*
X1376426D02*
D03*
X3302000Y1742186D02*
D03*
X3336290D02*
D03*
X3302000Y1777746D02*
D03*
X3336290D02*
D03*
D30*
X2115312Y1136650D02*
D03*
X2171192Y961390D02*
D03*
X2206752Y1010920D02*
D03*
Y1069340D02*
D03*
X2172462Y1117600D02*
D03*
X2058162D02*
D03*
X2023872Y1070610D02*
D03*
Y1008380D02*
D03*
X2059432Y961390D02*
D03*
X2115820Y507492D02*
D03*
X2171700Y332232D02*
D03*
X2207260Y381762D02*
D03*
Y440182D02*
D03*
X2172970Y488442D02*
D03*
X2058670D02*
D03*
X2024380Y441452D02*
D03*
Y379222D02*
D03*
X2059940Y332232D02*
D03*
X2565654Y506222D02*
D03*
X2621534Y330962D02*
D03*
X2657094Y380492D02*
D03*
Y438912D02*
D03*
X2622804Y487172D02*
D03*
X2508504D02*
D03*
X2474214Y440182D02*
D03*
Y377952D02*
D03*
X2509774Y330962D02*
D03*
X2565400Y1136650D02*
D03*
X2621280Y961390D02*
D03*
X2656840Y1010920D02*
D03*
Y1069340D02*
D03*
X2622550Y1117600D02*
D03*
X2508250D02*
D03*
X2473960Y1070610D02*
D03*
Y1008380D02*
D03*
X2509520Y961390D02*
D03*
X1835912Y1481328D02*
D03*
X1871472Y1530858D02*
D03*
Y1589278D02*
D03*
X1837182Y1637538D02*
D03*
X1780032Y1656588D02*
D03*
X1722882Y1637538D02*
D03*
X1688592Y1590548D02*
D03*
Y1528318D02*
D03*
X1724152Y1481328D02*
D03*
X2955798D02*
D03*
X2991358Y1530858D02*
D03*
Y1589278D02*
D03*
X2957068Y1637538D02*
D03*
X2899918Y1656588D02*
D03*
X2842768Y1637538D02*
D03*
X2808478Y1590548D02*
D03*
Y1528318D02*
D03*
X2844038Y1481328D02*
D03*
X1415796Y1681226D02*
D03*
X1451356Y1730756D02*
D03*
Y1789176D02*
D03*
X1417066Y1837436D02*
D03*
X1359916Y1856486D02*
D03*
X1302766Y1837436D02*
D03*
X1268476Y1790446D02*
D03*
Y1728216D02*
D03*
X1304036Y1681226D02*
D03*
X3375660Y1681226D02*
D03*
X3411220Y1730756D02*
D03*
Y1789176D02*
D03*
X3376930Y1837436D02*
D03*
X3319780Y1856486D02*
D03*
X3262630Y1837436D02*
D03*
X3228340Y1790446D02*
D03*
Y1728216D02*
D03*
X3263900Y1681226D02*
D03*
D31*
X1881632Y846946D02*
D03*
X2331212D02*
D03*
X1940052Y740866D02*
D03*
X2388362Y740866D02*
D03*
X2007362Y846946D02*
D03*
X2455672D02*
D03*
X2324862Y1696576D02*
D03*
D32*
X1907032Y873616D02*
D03*
X1932432Y846946D02*
D03*
X2356612Y873616D02*
D03*
X2382012Y846946D02*
D03*
X1914652Y714196D02*
D03*
X1889252Y740866D02*
D03*
X2362962Y714196D02*
D03*
X2337562Y740866D02*
D03*
X1981962Y820276D02*
D03*
X1956562Y846946D02*
D03*
X2430272Y820276D02*
D03*
X2404872Y846946D02*
D03*
X2299462Y1669906D02*
D03*
X2274062Y1696576D02*
D03*
D33*
X2270252Y2354436D02*
D03*
X2177542Y1920096D02*
D03*
D34*
X2394712Y2354436D02*
D03*
X2276602Y1920096D02*
D03*
D35*
X1917192Y634186D02*
D03*
X2365502Y634186D02*
D03*
X2303272Y1761346D02*
D03*
X2500122Y1714356D02*
D03*
D36*
X1917192Y659586D02*
D03*
X2365502Y659586D02*
D03*
X2303272Y1786746D02*
D03*
X2500122Y1739756D02*
D03*
D37*
X1824482Y2322686D02*
D03*
Y2472546D02*
D03*
X2108962Y2082656D02*
D03*
Y2232516D02*
D03*
X2034032Y2082656D02*
D03*
Y2232516D02*
D03*
X1824482Y2138536D02*
D03*
Y2288396D02*
D03*
X2505202Y2323846D02*
D03*
Y2473706D02*
D03*
X2787580Y2089364D02*
D03*
Y2239224D02*
D03*
X2712650Y2089364D02*
D03*
Y2239224D02*
D03*
X2505202Y2137156D02*
D03*
Y2287016D02*
D03*
X1861312Y442116D02*
D03*
Y591976D02*
D03*
X2309622Y442116D02*
D03*
Y591976D02*
D03*
D38*
X2025142Y2424286D02*
D03*
X2707132Y2425446D02*
D03*
X1974342Y2471276D02*
D03*
X2656770Y2471634D02*
D03*
D39*
X1999742Y2424286D02*
D03*
X1974342D02*
D03*
X2681732Y2425446D02*
D03*
X2656332D02*
D03*
X1999742Y2471276D02*
D03*
X2025142D02*
D03*
X2682170Y2471634D02*
D03*
X2707570D02*
D03*
D40*
X1917192Y2271866D02*
D03*
X2599182Y2273026D02*
D03*
X2375656Y2103246D02*
D03*
X2345176Y2206846D02*
D03*
X2314696Y2103246D02*
D03*
X2284216Y2206846D02*
D03*
X2425192Y2017346D02*
D03*
X2455672Y1914016D02*
D03*
X2393442Y2017886D02*
D03*
X2362167Y1913376D02*
D03*
X1884172Y2375466D02*
D03*
X2563622Y2376916D02*
D03*
D41*
X1917192Y2375466D02*
D03*
X2599182Y2376626D02*
D03*
X2375656Y2206846D02*
D03*
X2345176Y2103246D02*
D03*
X2314696Y2206846D02*
D03*
X2284216Y2103246D02*
D03*
X2425192Y1913746D02*
D03*
X2455672Y2017616D02*
D03*
X2393442Y1914286D02*
D03*
X2362167Y2016976D02*
D03*
X2459212Y1780396D02*
D03*
X2354342Y1881996D02*
D03*
X1884172Y2271866D02*
D03*
X2563622Y2273316D02*
D03*
D42*
X2355612Y1780396D02*
D03*
X2457942Y1881996D02*
D03*
D43*
X2116582Y2275696D02*
D03*
Y2288396D02*
D03*
Y2301096D02*
D03*
X2801112Y2276856D02*
D03*
Y2289556D02*
D03*
Y2302256D02*
D03*
D44*
X2302002Y2612246D02*
D03*
X1696459Y2612206D02*
D03*
X2985015Y2612287D02*
D03*
X2379472Y2612246D02*
D03*
D45*
X1860804Y383122D02*
D03*
X2309622D02*
D03*
X1924558Y1588352D02*
D03*
X1503934Y1787906D02*
D03*
X3041904Y1590294D02*
D03*
X3460750Y1787144D02*
D03*
D46*
X1995932Y909176D02*
D03*
X1973072D02*
D03*
X1950212D02*
D03*
X2444242D02*
D03*
X2421382D02*
D03*
X2398522D02*
D03*
D47*
X3400000Y1600000D02*
D03*
X3300000Y2200000D02*
D03*
X3350000Y2100000D02*
D03*
X3300000Y2000000D02*
D03*
X3350000Y1900000D02*
D03*
X3300000Y1600000D02*
D03*
X3350000Y1500000D02*
D03*
Y1300000D02*
D03*
X3300000Y1200000D02*
D03*
X3200000Y2400000D02*
D03*
X3250000Y2300000D02*
D03*
X3200000Y2200000D02*
D03*
X3250000Y2100000D02*
D03*
X3200000Y2000000D02*
D03*
X3250000Y1900000D02*
D03*
Y1300000D02*
D03*
X3200000Y1200000D02*
D03*
X3250000Y1100000D02*
D03*
X3200000Y1000000D02*
D03*
X3100000Y2600000D02*
D03*
X3150000Y2500000D02*
D03*
X3100000Y2400000D02*
D03*
X3150000Y2300000D02*
D03*
X3100000Y2200000D02*
D03*
X3150000Y2100000D02*
D03*
X3100000Y2000000D02*
D03*
X3150000Y1900000D02*
D03*
X3100000Y1600000D02*
D03*
X3150000Y1300000D02*
D03*
X3100000Y1200000D02*
D03*
X3150000Y1100000D02*
D03*
X3100000Y1000000D02*
D03*
X3150000Y900000D02*
D03*
X3100000Y800000D02*
D03*
Y600000D02*
D03*
X3050000Y2500000D02*
D03*
X3000000Y2400000D02*
D03*
X3050000Y2300000D02*
D03*
X3000000Y2200000D02*
D03*
X3050000Y2100000D02*
D03*
X3000000Y2000000D02*
D03*
X3050000Y1900000D02*
D03*
X3000000Y1800000D02*
D03*
X3050000Y1700000D02*
D03*
Y1300000D02*
D03*
X3000000Y1200000D02*
D03*
X3050000Y1100000D02*
D03*
X3000000Y1000000D02*
D03*
X3050000Y900000D02*
D03*
X3000000Y800000D02*
D03*
X3050000Y700000D02*
D03*
X3000000Y600000D02*
D03*
X3050000Y500000D02*
D03*
X3000000Y400000D02*
D03*
X2900000Y2600000D02*
D03*
X2950000Y2500000D02*
D03*
X2900000Y2400000D02*
D03*
X2950000Y2300000D02*
D03*
X2900000Y2200000D02*
D03*
X2950000Y2100000D02*
D03*
X2900000Y2000000D02*
D03*
Y1800000D02*
D03*
X2950000Y1700000D02*
D03*
Y1300000D02*
D03*
X2900000Y1200000D02*
D03*
X2950000Y1100000D02*
D03*
X2900000Y1000000D02*
D03*
X2950000Y900000D02*
D03*
X2900000Y800000D02*
D03*
X2950000Y700000D02*
D03*
X2900000Y600000D02*
D03*
X2950000Y500000D02*
D03*
X2900000Y400000D02*
D03*
X2800000Y2600000D02*
D03*
X2850000Y2300000D02*
D03*
Y2100000D02*
D03*
X2800000Y2000000D02*
D03*
X2850000Y1900000D02*
D03*
X2800000Y1800000D02*
D03*
X2850000Y1700000D02*
D03*
Y1300000D02*
D03*
X2800000Y1200000D02*
D03*
X2850000Y1100000D02*
D03*
Y900000D02*
D03*
X2800000Y800000D02*
D03*
X2850000Y700000D02*
D03*
X2800000Y600000D02*
D03*
X2850000Y500000D02*
D03*
X2800000Y400000D02*
D03*
X2700000Y2600000D02*
D03*
X2750000Y2100000D02*
D03*
X2700000Y2000000D02*
D03*
X2750000Y1700000D02*
D03*
X2700000Y1600000D02*
D03*
X2750000Y1100000D02*
D03*
X2700000Y1000000D02*
D03*
Y800000D02*
D03*
Y600000D02*
D03*
X2750000Y500000D02*
D03*
X2600000Y2600000D02*
D03*
Y2000000D02*
D03*
Y1200000D02*
D03*
X2500000Y2600000D02*
D03*
X2550000Y2500000D02*
D03*
Y1700000D02*
D03*
X2500000Y1600000D02*
D03*
Y800000D02*
D03*
Y600000D02*
D03*
X2450000Y2300000D02*
D03*
X2400000Y2200000D02*
D03*
Y1600000D02*
D03*
X2450000Y1500000D02*
D03*
Y1100000D02*
D03*
X2400000Y600000D02*
D03*
X2450000Y500000D02*
D03*
X2400000Y400000D02*
D03*
X2300000Y2000000D02*
D03*
Y1600000D02*
D03*
X2350000Y1500000D02*
D03*
X2300000Y1400000D02*
D03*
X2350000Y1300000D02*
D03*
X2300000Y1200000D02*
D03*
X2350000Y1100000D02*
D03*
X2300000Y800000D02*
D03*
X2350000Y500000D02*
D03*
X2200000Y2600000D02*
D03*
Y2200000D02*
D03*
Y2000000D02*
D03*
X2250000Y1900000D02*
D03*
X2200000Y1800000D02*
D03*
X2250000Y1700000D02*
D03*
X2200000Y1600000D02*
D03*
X2250000Y1500000D02*
D03*
Y1100000D02*
D03*
X2200000Y800000D02*
D03*
X2100000Y2600000D02*
D03*
X2150000Y1900000D02*
D03*
Y1700000D02*
D03*
Y1500000D02*
D03*
X2100000Y1200000D02*
D03*
Y800000D02*
D03*
X2000000Y2600000D02*
D03*
X2050000Y2100000D02*
D03*
X2000000Y2000000D02*
D03*
Y1800000D02*
D03*
Y1600000D02*
D03*
Y1400000D02*
D03*
X2050000Y700000D02*
D03*
X1900000Y2600000D02*
D03*
Y2000000D02*
D03*
X1950000Y1900000D02*
D03*
X1900000Y1800000D02*
D03*
X1950000Y1500000D02*
D03*
X1900000Y1200000D02*
D03*
X1950000Y1100000D02*
D03*
X1900000Y800000D02*
D03*
Y400000D02*
D03*
X1800000Y2600000D02*
D03*
X1850000Y2500000D02*
D03*
X1800000Y2400000D02*
D03*
Y2200000D02*
D03*
X1850000Y2100000D02*
D03*
X1800000Y2000000D02*
D03*
X1850000Y1900000D02*
D03*
X1800000Y1800000D02*
D03*
Y1400000D02*
D03*
Y1200000D02*
D03*
X1850000Y1100000D02*
D03*
X1800000Y1000000D02*
D03*
Y800000D02*
D03*
Y600000D02*
D03*
X1850000Y500000D02*
D03*
X1800000Y400000D02*
D03*
X1750000Y2500000D02*
D03*
X1700000Y2400000D02*
D03*
X1750000Y2300000D02*
D03*
X1700000Y2200000D02*
D03*
X1750000Y1900000D02*
D03*
X1700000Y1800000D02*
D03*
Y1200000D02*
D03*
X1750000Y1100000D02*
D03*
X1700000Y1000000D02*
D03*
X1750000Y900000D02*
D03*
X1700000Y800000D02*
D03*
X1750000Y700000D02*
D03*
X1700000Y600000D02*
D03*
X1750000Y500000D02*
D03*
X1700000Y400000D02*
D03*
X1600000Y2600000D02*
D03*
X1650000Y2500000D02*
D03*
X1600000Y2400000D02*
D03*
X1650000Y2300000D02*
D03*
X1600000Y2200000D02*
D03*
X1650000Y2100000D02*
D03*
Y1900000D02*
D03*
X1600000Y1800000D02*
D03*
X1650000Y1700000D02*
D03*
X1600000Y1200000D02*
D03*
X1650000Y1100000D02*
D03*
X1600000Y1000000D02*
D03*
X1650000Y900000D02*
D03*
X1600000Y800000D02*
D03*
X1650000Y700000D02*
D03*
X1600000Y600000D02*
D03*
X1650000Y500000D02*
D03*
X1550000Y2500000D02*
D03*
X1500000Y2400000D02*
D03*
X1550000Y2300000D02*
D03*
X1500000Y2200000D02*
D03*
X1550000Y2100000D02*
D03*
Y1900000D02*
D03*
Y1700000D02*
D03*
X1500000Y1600000D02*
D03*
Y1200000D02*
D03*
X1550000Y1100000D02*
D03*
X1500000Y1000000D02*
D03*
X1550000Y900000D02*
D03*
X1500000Y800000D02*
D03*
X1550000Y700000D02*
D03*
X1450000Y2300000D02*
D03*
X1400000Y2200000D02*
D03*
X1450000Y2100000D02*
D03*
X1400000Y1600000D02*
D03*
X1450000Y1300000D02*
D03*
X1400000Y1200000D02*
D03*
X1450000Y1100000D02*
D03*
X1350000Y2100000D02*
D03*
X1300000Y2000000D02*
D03*
X1350000Y1700000D02*
D03*
Y1500000D02*
D03*
X1300000Y1400000D02*
D03*
X1350000Y1300000D02*
D03*
M02*
