M48
;Layer_Color=9474304
;FILE_FORMAT=4:4
METRIC,LZ
;TYPE=PLATED
T01F00S00C0.7112
T02F00S00C0.7500
T03F00S00C0.8400
T04F00S00C1.0000
T05F00S00C1.0160
T06F00S00C1.0600
T07F00S00C1.1176
T08F00S00C1.1260
T09F00S00C1.2900
T10F00S00C1.5240
T11F00S00C1.8000
T12F00S00C1.9304
T13F00S00C3.0000
;TYPE=NON_PLATED
T14F00S00C3.2000
%
T01
X028Y004
X029
X03
X0305Y005
X0295
X0285
X029Y006
X03
X031
X0305Y007
X0295
X0285
X028Y006
X027
X0275Y005
X0245
X025Y006
X024
Y004
X0235Y005
X0205Y007
X0175
X0165
X017Y006
X018
X0185Y005
X0175
X0165
X017Y004
X018
X019
X016Y006
X0155Y007
X015Y008
X0155Y009
X015Y01
X0155Y011
X0145
X0165
X0175
X0185
X0195
X018Y01
X017
X016
X0165Y009
X0175
X018Y008
X019
X017
X016
X021
X022
X023
X0235Y011
X0225
X0245
X0275
X027Y01
Y008
X025
X028
X029
X03
X031
X0315Y009
X0305
X0295
X0285
X029Y01
X03
X031
X0315Y011
X0305
X0295
X0285
X0325
X032Y01
Y012
X033
X0335Y013
X0325
X0335Y015
X0315Y013
X0305
X0295
X0285
X029Y012
X03
X031
X028
X026
X0245Y015
X0235
X0225
X0215
X023Y014
X0235Y013
X023Y012
X021
X02Y014
X0195Y015
X018Y014
Y012
X019
X017
X016
X015
X014
X0145Y013
X0135
X013Y014
X0135Y015
X014Y016
X015
X0155Y017
Y019
X0135Y017
X0165
X017Y018
X018
X019
X0195Y019
X0185
X0175
X0165
X016Y018
X02
X022
X0225Y019
X0215
Y017
X0225
X023Y016
X022
X02
X024
X025
X0255Y017
X0275
X027Y016
X0285Y017
X0295
X0305
X031Y016
X03Y018
X029
X028
X0285Y019
X0305
X0315
X0325
X0335
X034Y016
X033
Y02
X032
X0325Y021
X0335
X033Y022
X032
X0325Y023
X0315
X0305
X0295
X0285
X029Y022
X03
X031
X0315Y021
X0305
X0295
X0285
X029Y02
X03
X031
X028
X027
X026
X0275Y021
X024Y022
X0245Y023
X022Y022
Y02
X023
X02
X0205Y021
X0185
X019Y02
X018
Y022
X017
X016
X0165Y023
X0175
X0165Y021
X0155
X0145
X0135
X014Y022
X015
X0155Y023
X0145
X013Y02
X015Y024
X0155Y025
X0165
X0175
X0185
X019Y026
X018
Y024
X017
X016
Y026
X02
X021
X022
X025
X026
X027
X0255Y025
X028Y026
X029
X0295Y025
X0305
X0315
X031Y026
Y024
X03
X029
X032
T02
X02365502Y00634186
Y00659586
X01917192Y00659586
Y00634186
X02303272Y01761346
Y01786746
X02500122Y01739756
Y01714356
T03
X02801112Y02276856
Y02289556
Y02302256
X02116582Y02301096
Y02288396
Y02275696
T04
X01919478Y00317534
X01963928
Y00367064
X01919478
X02368296
Y00317534
X02412746
Y00367064
X02421382Y00447496
Y00497026
Y00538936
Y00588466
Y00625296
Y00674826
X02388362Y00740866
X02563622Y00643416
X02608072
Y00593886
X02563622
X02656332Y00639606
Y00539276
X02371852Y00542446
Y00442116
X02206752Y00539276
Y00639606
X02158492Y00643416
X02114042
Y00593886
X02158492
X02294382Y00631646
Y00681176
Y00718006
Y00767536
X02337562Y00740866
X02362962Y00714196
X01971802Y00674826
Y00625296
Y00588466
Y00538936
X01973072Y00497026
Y00447496
X01923542Y00442116
Y00542446
X01846072Y00631646
Y00681176
Y00718006
Y00767536
X01889252Y00740866
X01940052
X01914652Y00714196
X01932432Y00846946
X01956562
X01981962Y00820276
X01881632Y00846946
X01907032Y00873616
X01891792Y00909066
Y00958596
X02007362Y00846946
X02042922Y00824086
Y00873616
X02356612
X02341372Y00909066
Y00958596
X02331212Y00846946
X02265172Y01020936
Y01070466
X02213102Y01182226
X02017522
X02467102
X02662682
X02717292Y01070466
Y01020936
X02491232Y00872346
Y00822816
X02455672Y00846946
X02404872
X02382012
X02430272Y00820276
X03192449Y0136303
X03237153Y01362522
Y01412052
X03192449Y0141256
Y01448882
Y01498412
X03141903Y01466916
X03092881Y0144685
X03093135Y01410528
X03048177
Y01360998
X03093135
X03141903Y01366586
X03092881Y0149638
X02662682Y01282556
X02614422Y01286366
Y01236836
X02564892Y01231646
X02516632Y01236836
Y01286366
X02467102Y01282556
X02564892Y01331976
X02213102Y01282556
X02164842Y01286366
Y01236836
X02115312Y01230376
X02067052Y01236836
Y01286366
X02017522Y01282556
X02115312Y01330706
X0163195Y01360998
Y01410528
X0158623
X01585722Y01447358
Y01496888
X01535684Y01465138
X014859Y0144685
X01485827Y01410709
X01439926Y01410782
Y01361252
X01485827Y01361179
X01535684Y01364808
X0158623Y01360998
X014859Y0149638
X02299462Y01669906
X02324862Y01696576
X02356612
Y01742296
X02274062Y01696576
X02406142
Y01742296
X02500122Y01780396
Y01880726
X02801112Y02341626
X02754122Y02325116
Y02275586
X02636012
Y02325116
X02608072Y02246376
X02563622
Y02196846
X0256406Y02160484
X0260851
X02608072Y02196846
X0265296Y02159214
Y02109684
Y02074124
X0260851
Y02110954
X0256406
Y02074124
Y02024594
X0260851
X0265296
X02072132Y02274426
Y02323956
X02116582Y02339196
X01957832Y02323956
Y02274426
X01928622Y02245216
X01884172
Y02195686
Y02158856
X01928622
Y02195686
X01973072Y02157586
Y02108056
Y02072496
X01928622
Y02109326
X01884172
Y02072496
Y02022966
X01928622
X01973072
X01763522Y02098946
X01719326Y02099396
Y02148926
X01763522Y02148476
X01884172Y02417936
Y02467466
X02116582Y02475086
Y02425556
Y02388726
X02563622Y02419096
Y02468626
X02801112Y02477516
Y02427986
Y02391156
T05
X02309622Y00442116
Y00591976
X01861312Y00591976
Y00442116
X0278758Y02089364
Y02239224
X0271265
Y02089364
X02505202Y02137156
Y02287016
Y02323846
X02108962Y02232516
X02034032
Y02082656
X02108962
X01824482Y02138536
Y02288396
Y02322686
Y02472546
X02505202Y02473706
T06
X02355612Y01780396
X02354342Y01881996
X02362167Y01913376
X02393442Y01914286
X02425192Y01913746
X02455672Y01914016
X02457942Y01881996
X02459212Y01780396
X02455672Y02017616
X02425192Y02017346
X02393442Y02017886
X02563622Y02273316
X02599182Y02273026
Y02376626
X02563622Y02376916
X02375656Y02206846
X02345176
X02314696
X02284216
Y02103246
X02314696
X02345176
X02375656
X02362167Y02016976
X01917192Y02271866
X01884172
Y02375466
X01917192
T07
X01950212Y00909176
X01973072
X01995932
X02398522
X02421382
X02444242
T08
X0209804Y00393192
X0213233
X02547874Y00391922
X02582164
Y00427482
X02547874
X0213233Y00428752
X0209804
X02097532Y0102235
X02131822
Y0105791
X02097532
X0254762
X0258191
Y0102235
X0254762
X02882138Y01542288
X02916428
Y01577848
X02882138
X01796542
X01762252
Y01542288
X01796542
X01376426Y01742186
X01342136
Y01777746
X01376426
X03302Y01777746
X0333629
Y01742186
X03302
T09
X01974342Y02424286
Y02471276
X01999742
X02025142
Y02424286
X01999742
X02656332Y02425446
X02681732
X02707132
X0270757Y02471634
X0268217
X0265677
T10
X02177542Y01920096
X02276602
X02394712Y02354436
X02270252
T11
X01860804Y00341122
Y00383122
X02309622
Y00341122
X03041904Y01548294
X01924558Y01546352
X01503934Y01745906
Y01787906
X01924558Y01588352
X03041904Y01590294
X0346075Y01745144
Y01787144
X02425282Y02053446
X02383282
X02295742
X02253742
X01762252Y02052574
X01720252
T12
X0205994Y00332232
X0202438Y00379222
X0220726Y00381762
X021717Y00332232
X02509774Y00330962
X02474214Y00377952
X02657094Y00380492
X02621534Y00330962
X02657094Y00438912
X02622804Y00487172
X02565654Y00506222
X02508504Y00487172
X02474214Y00440182
X0220726
X0217297Y00488442
X0211582Y00507492
X0205867Y00488442
X0202438Y00441452
X02059432Y0096139
X02023872Y0100838
Y0107061
X02058162Y011176
X02115312Y0113665
X02172462Y011176
X02206752Y0106934
Y0101092
X02171192Y0096139
X0250952
X0247396Y0100838
Y0107061
X0250825Y011176
X025654Y0113665
X0262255Y011176
X0265684Y0106934
Y0101092
X0262128Y0096139
X02844038Y01481328
X02808478Y01528318
X02991358Y01530858
X02955798Y01481328
X01835912
X01871472Y01530858
X01688592Y01528318
X01724152Y01481328
X01415796Y01681226
X01451356Y01730756
Y01789176
X01417066Y01837436
X01359916Y01856486
X01302766Y01837436
X01268476Y01790446
Y01728216
X01304036Y01681226
X01722882Y01637538
X01780032Y01656588
X01837182Y01637538
X01871472Y01589278
X01688592Y01590548
X02808478
X02842768Y01637538
X02899918Y01656588
X02957068Y01637538
X02991358Y01589278
X032639Y01681226
X0322834Y01728216
Y01790446
X0326263Y01837436
X0331978Y01856486
X0337693Y01837436
X0341122Y01789176
Y01730756
X0337566Y01681226
T13
X02819943Y00280079
T14
X01696459Y02612206
X02302002Y02612246
X02379472
X02985015Y02612287
M30
