G04*
G04 #@! TF.GenerationSoftware,Altium Limited,Altium Designer,24.5.2 (23)*
G04*
G04 Layer_Color=16711935*
%FSLAX44Y44*%
%MOMM*%
G71*
G04*
G04 #@! TF.SameCoordinates,D553E347-6E3C-48DD-9562-C4322221CC57*
G04*
G04*
G04 #@! TF.FilePolarity,Negative*
G04*
G01*
G75*
%ADD25C,5.2032*%
%ADD26C,2.4524*%
%ADD27R,2.4524X2.4524*%
%ADD28C,1.7032*%
%ADD29R,1.9632X1.9632*%
%ADD30C,4.0132*%
%ADD31R,1.7112X1.7112*%
%ADD32C,1.7112*%
%ADD33R,2.4892X2.4892*%
%ADD34C,2.4892*%
%ADD35R,1.3032X1.3032*%
%ADD36C,1.3032*%
%ADD37C,1.8542*%
%ADD38R,2.1382X2.1382*%
%ADD39C,2.1382*%
%ADD40R,1.7932X1.7932*%
%ADD41C,1.7932*%
%ADD42R,1.7932X1.7932*%
%ADD43O,2.2832X1.2432*%
%ADD44C,0.2032*%
%ADD45R,2.4524X2.4524*%
%ADD46O,1.8796X3.5560*%
%ADD47C,1.4732*%
D25*
X2819943Y280079D02*
D03*
D26*
X1720252Y2052574D02*
D03*
X1860804Y341122D02*
D03*
X2309622D02*
D03*
X1924558Y1546352D02*
D03*
X1503934Y1745906D02*
D03*
X2253742Y2053446D02*
D03*
X2383282D02*
D03*
X3041904Y1548294D02*
D03*
X3460750Y1745144D02*
D03*
D27*
X1762252Y2052574D02*
D03*
X2295742Y2053446D02*
D03*
X2425282D02*
D03*
D28*
X1719326Y2099396D02*
D03*
Y2148926D02*
D03*
X1763522Y2098946D02*
D03*
Y2148476D02*
D03*
X2017522Y1182226D02*
D03*
Y1282556D02*
D03*
X2467102Y1182226D02*
D03*
Y1282556D02*
D03*
X2213102Y1182226D02*
D03*
Y1282556D02*
D03*
X2662682Y1182226D02*
D03*
Y1282556D02*
D03*
X2206752Y539276D02*
D03*
Y639606D02*
D03*
X2656332Y539276D02*
D03*
Y639606D02*
D03*
X1923542Y442116D02*
D03*
Y542446D02*
D03*
X2371852Y442116D02*
D03*
Y542446D02*
D03*
X2115312Y1230376D02*
D03*
Y1330706D02*
D03*
X2564892Y1231646D02*
D03*
Y1331976D02*
D03*
X1535684Y1364808D02*
D03*
Y1465138D02*
D03*
X3141903Y1366586D02*
D03*
Y1466916D02*
D03*
X2500122Y1880726D02*
D03*
Y1780396D02*
D03*
X1884172Y2467466D02*
D03*
Y2417936D02*
D03*
X2116582Y2339196D02*
D03*
Y2388726D02*
D03*
Y2425556D02*
D03*
Y2475086D02*
D03*
X1957832Y2323956D02*
D03*
Y2274426D02*
D03*
X2072132Y2323956D02*
D03*
Y2274426D02*
D03*
X1884172Y2022966D02*
D03*
Y2072496D02*
D03*
X1928622Y2022966D02*
D03*
Y2072496D02*
D03*
X1973072Y2022966D02*
D03*
Y2072496D02*
D03*
Y2108056D02*
D03*
Y2157586D02*
D03*
X1884172Y2109326D02*
D03*
Y2158856D02*
D03*
X1928622Y2109326D02*
D03*
Y2158856D02*
D03*
Y2195686D02*
D03*
Y2245216D02*
D03*
X1884172Y2195686D02*
D03*
Y2245216D02*
D03*
X2563622Y2468626D02*
D03*
Y2419096D02*
D03*
X2801112Y2341626D02*
D03*
Y2391156D02*
D03*
Y2427986D02*
D03*
Y2477516D02*
D03*
X2636012Y2325116D02*
D03*
Y2275586D02*
D03*
X2754122Y2325116D02*
D03*
Y2275586D02*
D03*
X2564060Y2024594D02*
D03*
Y2074124D02*
D03*
X2608510Y2024594D02*
D03*
Y2074124D02*
D03*
X2652960Y2024594D02*
D03*
Y2074124D02*
D03*
Y2109684D02*
D03*
Y2159214D02*
D03*
X2564060Y2110954D02*
D03*
Y2160484D02*
D03*
X2608510Y2110954D02*
D03*
Y2160484D02*
D03*
X2608072Y2196846D02*
D03*
Y2246376D02*
D03*
X2563622Y2196846D02*
D03*
Y2246376D02*
D03*
X2067052Y1236836D02*
D03*
Y1286366D02*
D03*
X2516632Y1236836D02*
D03*
Y1286366D02*
D03*
X1586230Y1410528D02*
D03*
Y1360998D02*
D03*
X3093135Y1410528D02*
D03*
Y1360998D02*
D03*
X2164842Y1236836D02*
D03*
Y1286366D02*
D03*
X2614422Y1236836D02*
D03*
Y1286366D02*
D03*
X1585722Y1496888D02*
D03*
Y1447358D02*
D03*
X3092881Y1496380D02*
D03*
Y1446850D02*
D03*
X1963928Y367064D02*
D03*
Y317534D02*
D03*
X2412746Y367064D02*
D03*
Y317534D02*
D03*
X1485900Y1496380D02*
D03*
Y1446850D02*
D03*
X3192449Y1498412D02*
D03*
Y1448882D02*
D03*
X2158492Y593886D02*
D03*
Y643416D02*
D03*
X2608072Y593886D02*
D03*
Y643416D02*
D03*
X2265172Y1070466D02*
D03*
Y1020936D02*
D03*
X2717292Y1070466D02*
D03*
Y1020936D02*
D03*
X1485827Y1410709D02*
D03*
Y1361179D02*
D03*
X3192449Y1412560D02*
D03*
Y1363030D02*
D03*
X1919478Y367064D02*
D03*
Y317534D02*
D03*
X2368296Y367064D02*
D03*
Y317534D02*
D03*
X2114042Y593886D02*
D03*
Y643416D02*
D03*
X2563622Y593886D02*
D03*
Y643416D02*
D03*
X1846072Y718006D02*
D03*
Y767536D02*
D03*
X2294382Y718006D02*
D03*
Y767536D02*
D03*
X1846072Y631646D02*
D03*
Y681176D02*
D03*
X2294382Y631646D02*
D03*
Y681176D02*
D03*
X2042922Y824086D02*
D03*
Y873616D02*
D03*
X2491232Y822816D02*
D03*
Y872346D02*
D03*
X1891792Y909066D02*
D03*
Y958596D02*
D03*
X2341372Y909066D02*
D03*
Y958596D02*
D03*
X1973072Y447496D02*
D03*
Y497026D02*
D03*
X2421382Y447496D02*
D03*
Y497026D02*
D03*
X1971802Y588466D02*
D03*
Y538936D02*
D03*
X2421382Y588466D02*
D03*
Y538936D02*
D03*
X1971802Y674826D02*
D03*
Y625296D02*
D03*
X2421382Y674826D02*
D03*
Y625296D02*
D03*
X2406142Y1696576D02*
D03*
X2356612D02*
D03*
X2406142Y1742296D02*
D03*
X2356612D02*
D03*
X1631950Y1410528D02*
D03*
Y1360998D02*
D03*
X3048177Y1410528D02*
D03*
Y1360998D02*
D03*
X1439926Y1410782D02*
D03*
Y1361252D02*
D03*
X3237153Y1412052D02*
D03*
Y1362522D02*
D03*
D29*
X2097532Y1022350D02*
D03*
X2131822D02*
D03*
X2097532Y1057910D02*
D03*
X2131822D02*
D03*
X2098040Y393192D02*
D03*
X2132330D02*
D03*
X2098040Y428752D02*
D03*
X2132330D02*
D03*
X2547874Y391922D02*
D03*
X2582164D02*
D03*
X2547874Y427482D02*
D03*
X2582164D02*
D03*
X2547620Y1022350D02*
D03*
X2581910D02*
D03*
X2547620Y1057910D02*
D03*
X2581910D02*
D03*
X1762252Y1542288D02*
D03*
X1796542D02*
D03*
X1762252Y1577848D02*
D03*
X1796542D02*
D03*
X2882138Y1542288D02*
D03*
X2916428D02*
D03*
X2882138Y1577848D02*
D03*
X2916428D02*
D03*
X1342136Y1742186D02*
D03*
X1376426D02*
D03*
X1342136Y1777746D02*
D03*
X1376426D02*
D03*
X3302000Y1742186D02*
D03*
X3336290D02*
D03*
X3302000Y1777746D02*
D03*
X3336290D02*
D03*
D30*
X2115312Y1136650D02*
D03*
X2171192Y961390D02*
D03*
X2206752Y1010920D02*
D03*
Y1069340D02*
D03*
X2172462Y1117600D02*
D03*
X2058162D02*
D03*
X2023872Y1070610D02*
D03*
Y1008380D02*
D03*
X2059432Y961390D02*
D03*
X2115820Y507492D02*
D03*
X2171700Y332232D02*
D03*
X2207260Y381762D02*
D03*
Y440182D02*
D03*
X2172970Y488442D02*
D03*
X2058670D02*
D03*
X2024380Y441452D02*
D03*
Y379222D02*
D03*
X2059940Y332232D02*
D03*
X2565654Y506222D02*
D03*
X2621534Y330962D02*
D03*
X2657094Y380492D02*
D03*
Y438912D02*
D03*
X2622804Y487172D02*
D03*
X2508504D02*
D03*
X2474214Y440182D02*
D03*
Y377952D02*
D03*
X2509774Y330962D02*
D03*
X2565400Y1136650D02*
D03*
X2621280Y961390D02*
D03*
X2656840Y1010920D02*
D03*
Y1069340D02*
D03*
X2622550Y1117600D02*
D03*
X2508250D02*
D03*
X2473960Y1070610D02*
D03*
Y1008380D02*
D03*
X2509520Y961390D02*
D03*
X1835912Y1481328D02*
D03*
X1871472Y1530858D02*
D03*
Y1589278D02*
D03*
X1837182Y1637538D02*
D03*
X1780032Y1656588D02*
D03*
X1722882Y1637538D02*
D03*
X1688592Y1590548D02*
D03*
Y1528318D02*
D03*
X1724152Y1481328D02*
D03*
X2955798D02*
D03*
X2991358Y1530858D02*
D03*
Y1589278D02*
D03*
X2957068Y1637538D02*
D03*
X2899918Y1656588D02*
D03*
X2842768Y1637538D02*
D03*
X2808478Y1590548D02*
D03*
Y1528318D02*
D03*
X2844038Y1481328D02*
D03*
X1415796Y1681226D02*
D03*
X1451356Y1730756D02*
D03*
Y1789176D02*
D03*
X1417066Y1837436D02*
D03*
X1359916Y1856486D02*
D03*
X1302766Y1837436D02*
D03*
X1268476Y1790446D02*
D03*
Y1728216D02*
D03*
X1304036Y1681226D02*
D03*
X3375660Y1681226D02*
D03*
X3411220Y1730756D02*
D03*
Y1789176D02*
D03*
X3376930Y1837436D02*
D03*
X3319780Y1856486D02*
D03*
X3262630Y1837436D02*
D03*
X3228340Y1790446D02*
D03*
Y1728216D02*
D03*
X3263900Y1681226D02*
D03*
D31*
X1881632Y846946D02*
D03*
X2331212D02*
D03*
X1940052Y740866D02*
D03*
X2388362Y740866D02*
D03*
X2007362Y846946D02*
D03*
X2455672D02*
D03*
X2324862Y1696576D02*
D03*
D32*
X1907032Y873616D02*
D03*
X1932432Y846946D02*
D03*
X2356612Y873616D02*
D03*
X2382012Y846946D02*
D03*
X1914652Y714196D02*
D03*
X1889252Y740866D02*
D03*
X2362962Y714196D02*
D03*
X2337562Y740866D02*
D03*
X1981962Y820276D02*
D03*
X1956562Y846946D02*
D03*
X2430272Y820276D02*
D03*
X2404872Y846946D02*
D03*
X2299462Y1669906D02*
D03*
X2274062Y1696576D02*
D03*
D33*
X2270252Y2354436D02*
D03*
X2177542Y1920096D02*
D03*
D34*
X2394712Y2354436D02*
D03*
X2276602Y1920096D02*
D03*
D35*
X1917192Y634186D02*
D03*
X2365502Y634186D02*
D03*
X2303272Y1761346D02*
D03*
X2500122Y1714356D02*
D03*
D36*
X1917192Y659586D02*
D03*
X2365502Y659586D02*
D03*
X2303272Y1786746D02*
D03*
X2500122Y1739756D02*
D03*
D37*
X1824482Y2322686D02*
D03*
Y2472546D02*
D03*
X2108962Y2082656D02*
D03*
Y2232516D02*
D03*
X2034032Y2082656D02*
D03*
Y2232516D02*
D03*
X1824482Y2138536D02*
D03*
Y2288396D02*
D03*
X2505202Y2323846D02*
D03*
Y2473706D02*
D03*
X2787580Y2089364D02*
D03*
Y2239224D02*
D03*
X2712650Y2089364D02*
D03*
Y2239224D02*
D03*
X2505202Y2137156D02*
D03*
Y2287016D02*
D03*
X1861312Y442116D02*
D03*
Y591976D02*
D03*
X2309622Y442116D02*
D03*
Y591976D02*
D03*
D38*
X2025142Y2424286D02*
D03*
X2707132Y2425446D02*
D03*
X1974342Y2471276D02*
D03*
X2656770Y2471634D02*
D03*
D39*
X1999742Y2424286D02*
D03*
X1974342D02*
D03*
X2681732Y2425446D02*
D03*
X2656332D02*
D03*
X1999742Y2471276D02*
D03*
X2025142D02*
D03*
X2682170Y2471634D02*
D03*
X2707570D02*
D03*
D40*
X1917192Y2271866D02*
D03*
X2599182Y2273026D02*
D03*
X2375656Y2103246D02*
D03*
X2345176Y2206846D02*
D03*
X2314696Y2103246D02*
D03*
X2284216Y2206846D02*
D03*
X2425192Y2017346D02*
D03*
X2455672Y1914016D02*
D03*
X2393442Y2017886D02*
D03*
X2362167Y1913376D02*
D03*
X1884172Y2375466D02*
D03*
X2563622Y2376916D02*
D03*
D41*
X1917192Y2375466D02*
D03*
X2599182Y2376626D02*
D03*
X2375656Y2206846D02*
D03*
X2345176Y2103246D02*
D03*
X2314696Y2206846D02*
D03*
X2284216Y2103246D02*
D03*
X2425192Y1913746D02*
D03*
X2455672Y2017616D02*
D03*
X2393442Y1914286D02*
D03*
X2362167Y2016976D02*
D03*
X2459212Y1780396D02*
D03*
X2354342Y1881996D02*
D03*
X1884172Y2271866D02*
D03*
X2563622Y2273316D02*
D03*
D42*
X2355612Y1780396D02*
D03*
X2457942Y1881996D02*
D03*
D43*
X2116582Y2275696D02*
D03*
Y2288396D02*
D03*
Y2301096D02*
D03*
X2801112Y2276856D02*
D03*
Y2289556D02*
D03*
Y2302256D02*
D03*
D44*
X2302002Y2612246D02*
D03*
X1696459Y2612206D02*
D03*
X2985015Y2612287D02*
D03*
X2379472Y2612246D02*
D03*
D45*
X1860804Y383122D02*
D03*
X2309622D02*
D03*
X1924558Y1588352D02*
D03*
X1503934Y1787906D02*
D03*
X3041904Y1590294D02*
D03*
X3460750Y1787144D02*
D03*
D46*
X1995932Y909176D02*
D03*
X1973072D02*
D03*
X1950212D02*
D03*
X2444242D02*
D03*
X2421382D02*
D03*
X2398522D02*
D03*
D47*
X3400000Y1600000D02*
D03*
X3300000Y2200000D02*
D03*
X3350000Y2100000D02*
D03*
X3300000Y2000000D02*
D03*
X3350000Y1900000D02*
D03*
X3300000Y1600000D02*
D03*
X3350000Y1500000D02*
D03*
Y1300000D02*
D03*
X3300000Y1200000D02*
D03*
X3200000Y2400000D02*
D03*
X3250000Y2300000D02*
D03*
X3200000Y2200000D02*
D03*
X3250000Y2100000D02*
D03*
X3200000Y2000000D02*
D03*
X3250000Y1900000D02*
D03*
Y1300000D02*
D03*
X3200000Y1200000D02*
D03*
X3250000Y1100000D02*
D03*
X3200000Y1000000D02*
D03*
X3100000Y2600000D02*
D03*
X3150000Y2500000D02*
D03*
X3100000Y2400000D02*
D03*
X3150000Y2300000D02*
D03*
X3100000Y2200000D02*
D03*
X3150000Y2100000D02*
D03*
X3100000Y2000000D02*
D03*
X3150000Y1900000D02*
D03*
X3100000Y1600000D02*
D03*
X3150000Y1300000D02*
D03*
X3100000Y1200000D02*
D03*
X3150000Y1100000D02*
D03*
X3100000Y1000000D02*
D03*
X3150000Y900000D02*
D03*
X3100000Y800000D02*
D03*
Y600000D02*
D03*
X3050000Y2500000D02*
D03*
X3000000Y2400000D02*
D03*
X3050000Y2300000D02*
D03*
X3000000Y2200000D02*
D03*
X3050000Y2100000D02*
D03*
X3000000Y2000000D02*
D03*
X3050000Y1900000D02*
D03*
X3000000Y1800000D02*
D03*
X3050000Y1700000D02*
D03*
Y1300000D02*
D03*
X3000000Y1200000D02*
D03*
X3050000Y1100000D02*
D03*
X3000000Y1000000D02*
D03*
X3050000Y900000D02*
D03*
X3000000Y800000D02*
D03*
X3050000Y700000D02*
D03*
X3000000Y600000D02*
D03*
X3050000Y500000D02*
D03*
X3000000Y400000D02*
D03*
X2900000Y2600000D02*
D03*
X2950000Y2500000D02*
D03*
X2900000Y2400000D02*
D03*
X2950000Y2300000D02*
D03*
X2900000Y2200000D02*
D03*
X2950000Y2100000D02*
D03*
X2900000Y2000000D02*
D03*
Y1800000D02*
D03*
X2950000Y1700000D02*
D03*
Y1300000D02*
D03*
X2900000Y1200000D02*
D03*
X2950000Y1100000D02*
D03*
X2900000Y1000000D02*
D03*
X2950000Y900000D02*
D03*
X2900000Y800000D02*
D03*
X2950000Y700000D02*
D03*
X2900000Y600000D02*
D03*
X2950000Y500000D02*
D03*
X2900000Y400000D02*
D03*
X2800000Y2600000D02*
D03*
X2850000Y2300000D02*
D03*
Y2100000D02*
D03*
X2800000Y2000000D02*
D03*
X2850000Y1900000D02*
D03*
X2800000Y1800000D02*
D03*
X2850000Y1700000D02*
D03*
Y1300000D02*
D03*
X2800000Y1200000D02*
D03*
X2850000Y1100000D02*
D03*
Y900000D02*
D03*
X2800000Y800000D02*
D03*
X2850000Y700000D02*
D03*
X2800000Y600000D02*
D03*
X2850000Y500000D02*
D03*
X2800000Y400000D02*
D03*
X2700000Y2600000D02*
D03*
X2750000Y2100000D02*
D03*
X2700000Y2000000D02*
D03*
X2750000Y1700000D02*
D03*
X2700000Y1600000D02*
D03*
X2750000Y1100000D02*
D03*
X2700000Y1000000D02*
D03*
Y800000D02*
D03*
Y600000D02*
D03*
X2750000Y500000D02*
D03*
X2600000Y2600000D02*
D03*
Y2000000D02*
D03*
Y1200000D02*
D03*
X2500000Y2600000D02*
D03*
X2550000Y2500000D02*
D03*
Y1700000D02*
D03*
X2500000Y1600000D02*
D03*
Y800000D02*
D03*
Y600000D02*
D03*
X2450000Y2300000D02*
D03*
X2400000Y2200000D02*
D03*
Y1600000D02*
D03*
X2450000Y1500000D02*
D03*
Y1100000D02*
D03*
X2400000Y600000D02*
D03*
X2450000Y500000D02*
D03*
X2400000Y400000D02*
D03*
X2300000Y2000000D02*
D03*
Y1600000D02*
D03*
X2350000Y1500000D02*
D03*
X2300000Y1400000D02*
D03*
X2350000Y1300000D02*
D03*
X2300000Y1200000D02*
D03*
X2350000Y1100000D02*
D03*
X2300000Y800000D02*
D03*
X2350000Y500000D02*
D03*
X2200000Y2600000D02*
D03*
Y2200000D02*
D03*
Y2000000D02*
D03*
X2250000Y1900000D02*
D03*
X2200000Y1800000D02*
D03*
X2250000Y1700000D02*
D03*
X2200000Y1600000D02*
D03*
X2250000Y1500000D02*
D03*
Y1100000D02*
D03*
X2200000Y800000D02*
D03*
X2100000Y2600000D02*
D03*
X2150000Y1900000D02*
D03*
Y1700000D02*
D03*
Y1500000D02*
D03*
X2100000Y1200000D02*
D03*
Y800000D02*
D03*
X2000000Y2600000D02*
D03*
X2050000Y2100000D02*
D03*
X2000000Y2000000D02*
D03*
Y1800000D02*
D03*
Y1600000D02*
D03*
Y1400000D02*
D03*
X2050000Y700000D02*
D03*
X1900000Y2600000D02*
D03*
Y2000000D02*
D03*
X1950000Y1900000D02*
D03*
X1900000Y1800000D02*
D03*
X1950000Y1500000D02*
D03*
X1900000Y1200000D02*
D03*
X1950000Y1100000D02*
D03*
X1900000Y800000D02*
D03*
Y400000D02*
D03*
X1800000Y2600000D02*
D03*
X1850000Y2500000D02*
D03*
X1800000Y2400000D02*
D03*
Y2200000D02*
D03*
X1850000Y2100000D02*
D03*
X1800000Y2000000D02*
D03*
X1850000Y1900000D02*
D03*
X1800000Y1800000D02*
D03*
Y1400000D02*
D03*
Y1200000D02*
D03*
X1850000Y1100000D02*
D03*
X1800000Y1000000D02*
D03*
Y800000D02*
D03*
Y600000D02*
D03*
X1850000Y500000D02*
D03*
X1800000Y400000D02*
D03*
X1750000Y2500000D02*
D03*
X1700000Y2400000D02*
D03*
X1750000Y2300000D02*
D03*
X1700000Y2200000D02*
D03*
X1750000Y1900000D02*
D03*
X1700000Y1800000D02*
D03*
Y1200000D02*
D03*
X1750000Y1100000D02*
D03*
X1700000Y1000000D02*
D03*
X1750000Y900000D02*
D03*
X1700000Y800000D02*
D03*
X1750000Y700000D02*
D03*
X1700000Y600000D02*
D03*
X1750000Y500000D02*
D03*
X1700000Y400000D02*
D03*
X1600000Y2600000D02*
D03*
X1650000Y2500000D02*
D03*
X1600000Y2400000D02*
D03*
X1650000Y2300000D02*
D03*
X1600000Y2200000D02*
D03*
X1650000Y2100000D02*
D03*
Y1900000D02*
D03*
X1600000Y1800000D02*
D03*
X1650000Y1700000D02*
D03*
X1600000Y1200000D02*
D03*
X1650000Y1100000D02*
D03*
X1600000Y1000000D02*
D03*
X1650000Y900000D02*
D03*
X1600000Y800000D02*
D03*
X1650000Y700000D02*
D03*
X1600000Y600000D02*
D03*
X1650000Y500000D02*
D03*
X1550000Y2500000D02*
D03*
X1500000Y2400000D02*
D03*
X1550000Y2300000D02*
D03*
X1500000Y2200000D02*
D03*
X1550000Y2100000D02*
D03*
Y1900000D02*
D03*
Y1700000D02*
D03*
X1500000Y1600000D02*
D03*
Y1200000D02*
D03*
X1550000Y1100000D02*
D03*
X1500000Y1000000D02*
D03*
X1550000Y900000D02*
D03*
X1500000Y800000D02*
D03*
X1550000Y700000D02*
D03*
X1450000Y2300000D02*
D03*
X1400000Y2200000D02*
D03*
X1450000Y2100000D02*
D03*
X1400000Y1600000D02*
D03*
X1450000Y1300000D02*
D03*
X1400000Y1200000D02*
D03*
X1450000Y1100000D02*
D03*
X1350000Y2100000D02*
D03*
X1300000Y2000000D02*
D03*
X1350000Y1700000D02*
D03*
Y1500000D02*
D03*
X1300000Y1400000D02*
D03*
X1350000Y1300000D02*
D03*
M02*
